<svg xmlns="http://www.w3.org/2000/svg" 
  xmlns:xlink="http://www.w3.org/1999/xlink" viewBox="0 0 53.6 59.35">
  <defs>
    <linearGradient id="linear-gradient-27" x1="0.9" y1="22.35" x2="20.05" y2="22.35" gradientUnits="userSpaceOnUse">
      <stop offset="0" stop-color="#08bfba" />
      <stop offset="1" stop-color="#08a59d" />
    </linearGradient>
  </defs>
  <rect x="0" y="0" width="53.6" height="59.35" fill="#289ed1"/>
  <g id="box-2" transform="translate(0, 0)">
    <polygon class="cls-1" points="26.8 11.16 26.8 38.39 44.94 48.87 44.94 21.63" fill="#efb497" />
    <polygon class="cls-2" points="26.8 11.16 8.66 21.63 8.66 48.87 26.8 38.39 26.8 11.16" fill="#e2a993" />
    <g id="Erlenmeyer-5" transform="translate(16.3, 16)">
      <path id="liquid" d="M20.05,33.09c-.8-2.64-4.78-4.64-9.58-4.64S1.7,30.45.9,33.09L7.23,11.6c0,1,1.46,1.88,3.24,1.88s3.25-.84,3.25-1.88Z" fill="url(#linear-gradient-27)" />
      <ellipse id="liquid_bottom" data-name="liquid bottom" cx="10.47" cy="34.07" rx="9.73" ry="5.62" fill="#08a59d" />
      <ellipse id="liquid_top" data-name="liquid top" cx="10.47" cy="11.6" rx="3.24" ry="1.87" fill="#0bd8ce" />
      <path id="glass_behind" data-name="glass behind" d="M11.46,7.79h0c-.14,0-.29,0-.43,0s-.37,0-.55,0h0a7.66,7.66,0,0,1-1-.07h0A5.93,5.93,0,0,1,7.23,7V11.6c0-1,1.46-1.87,3.24-1.87s3.25.84,3.25,1.87V7A5.76,5.76,0,0,1,11.46,7.79Z" fill="#93ccc8" opacity="0.5" />
      <path id="glass" d="M20.77,32.87,14.47,11.5V6.41a3.19,3.19,0,0,1-.26.26,3.54,3.54,0,0,1-.49.34V11.6l6.33,21.49a3.19,3.19,0,0,1,.15,1c0,3.1-4.35,5.61-9.73,5.61S.75,37.17.75,34.07a3.19,3.19,0,0,1,.15-1L7.23,11.6V7a3.54,3.54,0,0,1-.49-.34,3.19,3.19,0,0,1-.26-.26V11.5L.18,32.87A4.11,4.11,0,0,0,0,34.07c0,3.57,4.6,6.36,10.47,6.36S21,37.64,21,34.07A4.11,4.11,0,0,0,20.77,32.87Z" fill="#fff" opacity="0.5" />
      <path id="top" d="M10.47,0C7.87,0,5.84,1.32,5.84,3V4.87a2.38,2.38,0,0,0,.9,1.8,5.81,5.81,0,0,0,3.74,1.19,5.78,5.78,0,0,0,3.73-1.19,2.38,2.38,0,0,0,.9-1.8V3.05h0V3C15.11,1.32,13.08,0,10.47,0Zm0,4.87C8.69,4.87,7.23,4,7.23,3s1.46-1.87,3.24-1.87S13.72,2,13.72,3,12.26,4.87,10.47,4.87Z" fill="#fff" opacity="0.5" />
      <ellipse id="opening" cx="10.47" cy="2.99" rx="3.24" ry="1.87" fill="#93ccc8" opacity="0.5" />
    </g>
    <polygon points="26.8 59.35 26.8 32.11 44.94 21.63 44.94 48.87 26.8 59.35" fill="#e2a993" stroke-width=".1" stroke="#e2a993" />
    <polygon points="8.66 21.63 8.66 48.87 26.8 59.35 26.8 32.11 8.66 21.63" fill="#efb497" stroke-width=".1" stroke="#e2a993" />

    <polygon points="26.8,32.11 8.66,21.63 2.54,32.24 20.68,42.72" fill="#fec19e">
      <animate attributeName="points" values="26.8,32.11 8.66,21.63 2.54,32.24 20.68,42.72;26.8,32.11 8.66,21.63 1.16,30.96 19.3,41.44;26.8,32.11 8.66,21.63 0.29,29.05 18.43,39.53;26.8,32.11 8.66,21.63 -0.00,26.63 18.14,37.11;26.8,32.11 8.66,21.63 0.29,23.87 18.43,34.35;26.8,32.11 8.66,21.63 1.16,20.96 19.3,31.44;26.8,32.11 8.66,21.63 2.54,18.09 20.68,28.57;26.8,32.11 8.66,21.63 4.33,15.47 22.47,25.95;26.8,32.11 8.66,21.63 6.42,13.26 24.56,23.74;26.8,32.11 8.66,21.63 8.66,11.63 26.8,22.11;26.8,32.11 8.66,21.63 10.90,10.68 29.04,21.16;26.8,32.11 8.66,21.63 12.99,10.47 31.13,20.95;26.8,32.11 8.66,21.63 14.78,11.02 32.92,21.5;26.8,32.11 8.66,21.63 16.16,12.3 34.3,22.78;26.8,32.11 8.66,21.63 17.03,14.21 35.17,24.69;26.8,32.11 8.66,21.63 17.32,16.63 35.46,27.11;26.8,32.11 8.66,21.63 17.32,16.63 35.46,27.11" keyTimes="0;0.014;0.026;0.04;0.054;0.066;0.08;0.094;0.106;0.12;0.134;0.146;0.16;0.174;0.186;0.2;1" dur="20s" repeatCount="indefinite" />
      <animate attributeName="fill" values="#ffc2a1;#ffc2a1;#f0b697;#ffc2a1;#ffc2a1" keyTimes="0;.04;.12;.2;1" dur="20s" repeatCount="indefinite" />
    </polygon>

    <polygon points="44.94,21.63 26.8,11.16 32.92,14.7 51.06,25.17" fill="#fec19e">
      <animate attributeName="points" values="44.94,21.63 26.8,11.16 32.92,14.7 51.06,25.17;44.94,21.63 26.8,11.16 34.30,11.83 52.44,22.3;44.94,21.63 26.8,11.16 35.17,8.92 53.31,19.39;44.94,21.63 26.8,11.16 35.46,6.16 53.6,16.63;44.94,21.63 26.8,11.16 35.17,3.74 53.31,14.21;44.94,21.63 26.8,11.16 34.30,1.83 52.44,12.3;44.94,21.63 26.8,11.16 32.92,0.55 51.06,11.02;44.94,21.63 26.8,11.16 31.13,-0 49.27,10.47;44.94,21.63 26.8,11.16 29.04,0.21 47.18,10.68;44.94,21.63 26.8,11.16 26.80,1.16 44.94,11.63;44.94,21.63 26.8,11.16 24.56,2.79 42.7,13.26;44.94,21.63 26.8,11.16 22.47,5 40.61,15.47;44.94,21.63 26.8,11.16 20.68,7.62 38.82,18.09;44.94,21.63 26.8,11.16 19.30,10.49 37.44,20.96;44.94,21.63 26.8,11.16 18.43,13.4 36.57,23.87;44.94,21.63 26.8,11.16 18.14,16.16 36.28,26.63;44.94,21.63 26.8,11.16 18.14,16.16 36.28,26.63" keyTimes="0;0.014;0.026;0.04;0.054;0.066;0.08;0.094;0.106;0.12;0.134;0.146;0.16;0.174;0.186;0.2;1" dur="20s" repeatCount="indefinite" />
      <animate attributeName="fill" values="#ffc2a1;#ffc2a1;#f0b697;#ffc2a1;#ffc2a1" keyTimes="0;0.04;0.12;0.2;1" dur="2s" repeatCount="indefinite" />
    </polygon>

    <polygon points="44.94 21.63 26.8 32.11 8.66 21.63 26.8 11.16" opacity="0" fill="#995416">
      <animate attributeName="opacity" values="0;0;1;1" keyTimes="0;0.245;0.26;1" dur="20s" repeatCount="indefinite" />
    </polygon>

    <polygon points="26.8,11.16 8.66,21.63 2.54,25.17 20.68,14.7" fill="#fec19e">
      <animate attributeName="points" values="26.8,11.16 8.66,21.63 2.54,25.17 20.68,14.7;26.8,11.16 8.66,21.63 2.54,25.17 20.68,14.7;26.8,11.16 8.66,21.63 1.18,22.34 19.32,11.87;26.8,11.16 8.66,21.63 0.31,19.47 18.45,9;26.8,11.16 8.66,21.63 0.00,16.73 18.14,6.26;26.8,11.16 8.66,21.63 0.26,14.33 18.4,3.86;26.8,11.16 8.66,21.63 1.09,12.41 19.23,1.94;26.8,11.16 8.66,21.63 2.41,11.1 20.55,0.63;26.8,11.16 8.66,21.63 4.15,10.49 22.29,0.02;26.8,11.16 8.66,21.63 6.19,10.62 24.33,0.15;26.8,11.16 8.66,21.63 8.39,11.48 26.53,1.01;26.8,11.16 8.66,21.63 10.61,13.01 28.75,2.54;26.8,11.16 8.66,21.63 12.70,15.12 30.84,4.65;26.8,11.16 8.66,21.63 14.52,17.65 32.66,7.18;26.8,11.16 8.66,21.63 15.96,20.45 34.1,9.98;26.8,11.16 8.66,21.63 16.91,23.33 35.05,12.86;26.8,11.16 8.66,21.63 17.31,26.1 35.45,15.63;26.8,11.16 8.66,21.63 17.31,26.1 35.45,15.63" keyTimes="0;0.05;0.064;0.076;0.09;0.104;0.116;0.13;0.144;0.156;0.17;0.184;0.196;0.21;0.224;0.236;0.25;1" dur="20s" repeatCount="indefinite" />
      <animate attributeName="fill" values="#ffc2a1;#ffc2a1;#e0aa8d;#ffc2a1;#ffc2a1" keyTimes="0;.09;.16;.29;1" dur="20s" repeatCount="indefinite" />
    </polygon>

    <polygon points="44.94,21.63 26.8,32.11 32.92,42.72 51.06,32.24" fill="#fec19e">
      <animate attributeName="points" values="44.94,21.63 26.8,32.11 32.92,42.72 51.06,32.24;44.94,21.63 26.8,32.11 32.92,42.72 51.06,32.24;44.94,21.63 26.8,32.11 34.28,41.46 52.42,30.98;44.94,21.63 26.8,32.11 35.15,39.59 53.29,29.11;44.94,21.63 26.8,32.11 35.46,37.21 53.6,26.73;44.94,21.63 26.8,32.11 35.20,34.5 53.34,24.02;44.94,21.63 26.8,32.11 34.37,31.64 52.51,21.16;44.94,21.63 26.8,32.11 33.05,28.8 51.19,18.32;44.94,21.63 26.8,32.11 31.31,26.18 49.45,15.7;44.94,21.63 26.8,32.11 29.27,23.96 47.41,13.48;44.94,21.63 26.8,32.11 27.07,22.27 45.21,11.79;44.94,21.63 26.8,32.11 24.85,21.24 42.99,10.76;44.94,21.63 26.8,32.11 22.76,20.93 40.9,10.45;44.94,21.63 26.8,32.11 20.94,21.36 39.08,10.88;44.94,21.63 26.8,32.11 19.50,22.51 37.64,12.03;44.94,21.63 26.8,32.11 18.55,24.29 36.69,13.81;44.94,21.63 26.8,32.11 18.15,26.59 36.29,16.11;44.94,21.63 26.8,32.11 18.15,26.59 36.29,16.11" keyTimes="0;0.05;0.064;0.076;0.09;0.104;0.116;0.13;0.144;0.156;0.17;0.184;0.196;0.21;0.224;0.236;0.25;1" dur="20s" repeatCount="indefinite" />
      <animate attributeName="fill" values="#ffc2a1;#ffc2a1;#e0aa8d;#ffc2a1;#ffc2a1" keyTimes="0;.09;.16;.29;1" dur="20s" repeatCount="indefinite" />
    </polygon>
  </g>
</svg>