<svg xmlns="http://www.w3.org/2000/svg" xmlns:xlink="http://www.w3.org/1999/xlink" viewBox="0 0 20.95 52.43">
  <defs>
    <linearGradient id="linear-gradient" x1="0.9" y1="22.35" x2="20.05" y2="22.35" gradientUnits="userSpaceOnUse">
      <stop offset="0" stop-color="#08bfba"/><stop offset="1" stop-color="#08a59d"/>
    </linearGradient>
  </defs>
  <circle r="2" fill="#08a59d">
    <animate
      attributeName="cx"
      values="10.5;10.5;13;8;13;8"
      keySplines="0.3 0 0.7 1;0.3 0 0.7 1;0.3 0 0.7 1;0.3 0 0.7 1;0.3 0 0.7 1"
      calcMode="spline"
      keyTimes="0;0;.25;.5;.75;1"
      dur="4s"
      repeatCount="indefinite"
    />
    <animate
      attributeName="cy"
      values="21;21;0;0"
      keyTimes="0;0;.75;1"
      dur="4s"
      repeatCount="indefinite"
    />
    <animate
      attributeName="opacity"
      values="0;.5;.5;0;0"
      keyTimes="0;0.1;.5;.75;1"
      dur="4s"
      repeatCount="indefinite"
    />
  </circle>
  <circle r="2" fill="#08a59d">
    <animate
      attributeName="cx"
      values="10.5;10.5;8;13;8;13"
      keySplines="0.3 0 0.7 1;0.3 0 0.7 1;0.3 0 0.7 1;0.3 0 0.7 1;0.3 0 0.7 1"
      calcMode="spline"
      keyTimes="0;0.1;.35;.6;.85;1"
      dur="4s"
      repeatCount="indefinite"
    />
    <animate
      attributeName="cy"
      values="21;21;0;0"
      keyTimes="0;0.1;.85;1"
      dur="4s"
      repeatCount="indefinite"
    />
    <animate
      attributeName="opacity"
      values="0;0;.5;.5;0;0"
      keyTimes="0;0.1;0.2;.6;.85;1"
      dur="4s"
      repeatCount="indefinite"
    />
  </circle>
  <circle r="2" fill="#08a59d">
    <animate
      attributeName="cx"
      values="10.5;10.5;13;8;13;8"
      keySplines="0.3 0 0.7 1;0.3 0 0.7 1;0.3 0 0.7 1;0.3 0 0.7 1;0.3 0 0.7 1"
      calcMode="spline"
      keyTimes="0;0.2;.45;.7;.95;1"
      dur="4s"
      repeatCount="indefinite"
    />
    <animate
      attributeName="cy"
      values="21;21;0;0"
      keyTimes="0;0.2;.95;1"
      dur="4s"
      repeatCount="indefinite"
    />
    <animate
      attributeName="opacity"
      values="0;0;.5;.5;0;0"
      keyTimes="0;0.2;0.3;.7;.95;1"
      dur="4s"
      repeatCount="indefinite"
    />
  </circle>
  <g transform="translate(0,12)">
  <path id="liquid" d="M20.05,33.09c-.8-2.64-4.78-4.64-9.58-4.64S1.7,30.45.9,33.09L7.23,11.6c0,1,1.46,1.88,3.24,1.88s3.25-.84,3.25-1.88Z" fill="url(#linear-gradient)"/>
  <ellipse id="liquid_bottom" data-name="liquid bottom" cx="10.47" cy="34.07" rx="9.73" ry="5.62" fill="#08a59d"/>
  <ellipse id="liquid_top" data-name="liquid top" cx="10.47" cy="11.6" rx="3.24" ry="1.87" fill="#0bd8ce"/>
  <path id="glass_behind" data-name="glass behind" d="M11.46,7.79h0c-.14,0-.29,0-.43,0s-.37,0-.55,0h0a7.66,7.66,0,0,1-1-.07h0A5.93,5.93,0,0,1,7.23,7V11.6c0-1,1.46-1.87,3.24-1.87s3.25.84,3.25,1.87V7A5.76,5.76,0,0,1,11.46,7.79Z" fill="#93ccc8" opacity="0.5"/>
  <path id="glass" d="M20.77,32.87,14.47,11.5V6.41a3.19,3.19,0,0,1-.26.26,3.54,3.54,0,0,1-.49.34V11.6l6.33,21.49a3.19,3.19,0,0,1,.15,1c0,3.1-4.35,5.61-9.73,5.61S.75,37.17.75,34.07a3.19,3.19,0,0,1,.15-1L7.23,11.6V7a3.54,3.54,0,0,1-.49-.34,3.19,3.19,0,0,1-.26-.26V11.5L.18,32.87A4.11,4.11,0,0,0,0,34.07c0,3.57,4.6,6.36,10.47,6.36S21,37.64,21,34.07A4.11,4.11,0,0,0,20.77,32.87Z" fill="#eeedd9" opacity="0.5"/>
  <path id="top" d="M10.47,0C7.87,0,5.84,1.32,5.84,3V4.87a2.38,2.38,0,0,0,.9,1.8,5.81,5.81,0,0,0,3.74,1.19,5.78,5.78,0,0,0,3.73-1.19,2.38,2.38,0,0,0,.9-1.8V3.05h0V3C15.11,1.32,13.08,0,10.47,0Zm0,4.87C8.69,4.87,7.23,4,7.23,3s1.46-1.87,3.24-1.87S13.72,2,13.72,3,12.26,4.87,10.47,4.87Z" fill="#eeedd9" opacity="0.5"/>
  <ellipse id="opening" cx="10.47" cy="2.99" rx="3.24" ry="1.87" fill="#93ccc8" opacity="0.5"/>
  </g>
</svg>