<svg xmlns="http://www.w3.org/2000/svg" viewBox="0 0 72.73 74.4">
  <defs>
    <style>.a{fill:#ccc;}.b{fill:#e5e5e5;}.c{fill:#b2b2b2;}.d{fill:#08bfba;}.e{fill:#242f62;}.f{fill:#b7b7b7;}.g{fill:#666;}</style>
  </defs>
  <polygon class="a" points="70.17 26.52 72.73 25.05 72.73 57.46 43.38 74.4 43.38 71.45 70.17 55.98 70.17 26.52"/>
  <polygon class="b" points="26.79 1.47 29.35 0 72.73 25.05 70.17 26.52 26.79 1.47"/>
  <polygon class="b" points="43.38 71.45 0 46.41 26.79 30.94 70.17 55.98 43.38 71.45"/>
  <polygon class="c" points="0 49.36 0 46.41 43.38 71.45 43.38 74.4 0 49.36"/>
  <polygon class="d" points="28.27 30.09 68.7 53.43 68.7 27.37 28.27 4.03 28.27 30.09"/>
  <path class="e" d="M28.27,4,68.7,27.37V53.43L28.27,30.09V4M26.79,1.47V30.94L70.18,56V26.52l-43.39-25Z"/>
  <polygon class="f" points="29.94 61.41 17.44 54.2 25.16 49.74 37.65 56.96 29.94 61.41"/>
  <polygon class="f" points="52.74 63.61 13.69 41.07 27.62 32.97 66.67 55.51 52.74 63.61"/>
  <polygon class="g">
    <animate attributeName="points" values="40.56 24.16 40.56 15.01 45.84 18.06 45.84 27.2 40.56 24.16;40.56 24.16 40.56 15.01 45.84 18.06 45.84 27.2 40.56 24.16;40.56 21.11 40.56 15.01 48.48 19.58 48.48 25.68 40.56 21.11;40.56 21.11 40.56 15.01 48.48 19.58 48.48 25.68 40.56 21.11;40.56 24.16 40.56 15.01 45.84 18.06 45.84 27.2 40.56 24.16" keyTimes="0;.25;.5;.75;1" dur="20s" repeatCount="indefinite" />
  </polygon>
  <polygon class="g">
    <animate attributeName="points" values="48.48 25.68 56.41 30.25 56.41 24.16 48.48 19.58 48.48 25.68;48.48 25.68 56.41 30.25 56.41 24.16 48.48 19.58 48.48 25.68;51.13 30.25 56.41 33.3 56.41 24.16 51.13 21.11 51.13 30.25;51.13 30.25 56.41 33.3 56.41 24.16 51.13 21.11 51.13 30.25;48.48 25.68 56.41 30.25 56.41 24.16 48.48 19.58 48.48 25.68" keyTimes="0;.25;.5;.75;1" dur="20s" repeatCount="indefinite" />
  </polygon>
  <polygon class="g">
    <animate attributeName="points" values="40.56 27.2 40.56 33.3 48.48 37.88 48.48 31.78 40.56 27.2;40.56 27.2 40.56 33.3 48.48 37.88 48.48 31.78 40.56 27.2;40.56 24.16 40.56 33.3 45.84 36.35 45.84 27.2 40.56 24.16;40.56 24.16 40.56 33.3 45.84 36.35 45.84 27.2 40.56 24.16;40.56 27.2 40.56 33.3 48.48 37.88 48.48 31.78 40.56 27.2" keyTimes="0;.25;.5;.75;1" dur="20s" repeatCount="indefinite" />
  </polygon>
  <polygon class="g">
    <animate attributeName="points" values="51.13 39.4 56.41 42.45 56.41 33.3 51.13 30.25 51.13 39.4;51.13 39.4 56.41 42.45 56.41 33.3 51.13 30.25 51.13 39.4;48.48 37.88 56.41 42.45 56.41 36.35 48.48 31.78 48.48 37.88;48.48 37.88 56.41 42.45 56.41 36.35 48.48 31.78 48.48 37.88;51.13 39.4 56.41 42.45 56.41 33.3 51.13 30.25 51.13 39.4" keyTimes="0;.25;.5;.75;1" dur="20s" repeatCount="indefinite" />
  </polygon>
</svg>