<svg xmlns="http://www.w3.org/2000/svg" 
  xmlns:xlink="http://www.w3.org/1999/xlink" viewBox="0 0 66.4 62.67">
  <defs>
    <style>.a{fill:#fff;}.b{fill:url(#a);}.c{fill:url(#b);}.d{fill:url(#c);}</style>
    <linearGradient id="a" y1="50" x2="66.4" y2="50" gradientUnits="userSpaceOnUse">
      <stop offset="0.45" stop-color="#ccc"/>
      <stop offset="0.55" stop-color="#999"/>
    </linearGradient>
    <linearGradient id="b" y1="40" x2="66.4" y2="40" xlink:href="#a"/>
    <linearGradient id="c" y1="30" x2="66.4" y2="30" xlink:href="#a"/>
  </defs>
  <g>
    <path class="a" d="M66.4,39.33a1.38,1.38,0,0,1-.41,1h0a1.57,1.57,0,0,1-.32.24L35.36,58.08a4.27,4.27,0,0,1-4.33,0L.72,40.58a1.91,1.91,0,0,1-.32-.24h0a1.41,1.41,0,0,1-.4-1,1.44,1.44,0,0,1,.72-1.25L31,20.58a4.33,4.33,0,0,1,4.33,0l30.31,17.5A1.43,1.43,0,0,1,66.4,39.33Z"/>
    <path class="b" d="M66.4,39.33v2a1.41,1.41,0,0,1-.73,1.25L35.36,60.08a4.27,4.27,0,0,1-4.33,0L.72,42.58A1.42,1.42,0,0,1,0,41.33v-2a1.41,1.41,0,0,0,.4,1h0a1.91,1.91,0,0,0,.32.24L31,58.08a4.27,4.27,0,0,0,4.33,0l30.31-17.5a1.57,1.57,0,0,0,.32-.24h0A1.38,1.38,0,0,0,66.4,39.33Z"/>
    <animateTransform attributeName="transform" type="translate" values="0,0;0,0;0,2;0,2;0,0;0,0" keyTimes="0;0.1;0.2;0.8;0.9;1" dur="20s" repeatCount="indefinite" />
  </g>
  <g>
    <path class="a" d="M66.4,29.33a1.38,1.38,0,0,1-.41,1h0a1.57,1.57,0,0,1-.32.24L35.36,48.08a4.27,4.27,0,0,1-4.33,0L.72,30.58a1.91,1.91,0,0,1-.32-.24h0a1.41,1.41,0,0,1-.4-1,1.44,1.44,0,0,1,.72-1.25L31,10.58a4.33,4.33,0,0,1,4.33,0l30.31,17.5A1.43,1.43,0,0,1,66.4,29.33Z"/>
    <path class="c" d="M66.4,29.33v2a1.41,1.41,0,0,1-.73,1.25L35.36,50.08a4.27,4.27,0,0,1-4.33,0L.72,32.58A1.42,1.42,0,0,1,0,31.33v-2a1.41,1.41,0,0,0,.4,1h0a1.91,1.91,0,0,0,.32.24L31,48.08a4.27,4.27,0,0,0,4.33,0l30.31-17.5a1.57,1.57,0,0,0,.32-.24h0A1.38,1.38,0,0,0,66.4,29.33Z"/>
    <animateTransform attributeName="transform" type="translate" values="0,0;0,0;0,2;0,2;0,0;0,0" keyTimes="0;0.2;0.3;0.7;0.8;1" dur="20s" repeatCount="indefinite" />
  </g>
  <g>
    <path class="a" d="M66.4,19.33a1.38,1.38,0,0,1-.41,1h0a1.57,1.57,0,0,1-.32.24L35.36,38.08a4.27,4.27,0,0,1-4.33,0L.72,20.58a1.91,1.91,0,0,1-.32-.24h0a1.41,1.41,0,0,1-.4-1,1.44,1.44,0,0,1,.72-1.25L31,.58a4.33,4.33,0,0,1,4.33,0l30.31,17.5A1.43,1.43,0,0,1,66.4,19.33Z"/>
    <path class="d" d="M66.4,19.33v2a1.41,1.41,0,0,1-.73,1.25L35.36,40.08a4.27,4.27,0,0,1-4.33,0L.72,22.58A1.42,1.42,0,0,1,0,21.33v-2a1.41,1.41,0,0,0,.4,1h0a1.91,1.91,0,0,0,.32.24L31,38.08a4.27,4.27,0,0,0,4.33,0l30.31-17.5a1.57,1.57,0,0,0,.32-.24h0A1.38,1.38,0,0,0,66.4,19.33Z"/>
    <animateTransform attributeName="transform" type="translate" values="0,0;0,0;0,2;0,2;0,0;0,0" keyTimes="0;0.3;0.4;0.6;0.7;1" dur="20s" repeatCount="indefinite" />
  </g>
</svg>
