<svg xmlns="http://www.w3.org/2000/svg" xmlns:xlink="http://www.w3.org/1999/xlink" viewBox="0 0 982.94 574.01"><style><![CDATA[.B{opacity:.5}.C{fill:#242f62}.D{fill:#93ccc8}.E{fill:#08bfba}.F{fill:#293bab}.G{fill:#08a59d}.H{fill:#0bd8ce}.I{fill:#99b1ff}.J{fill:#e3e9ff}.K{fill:#fff}.L{fill:#53b5c2}.M{fill:#fec19e}.N{fill:#efb497}.O{fill:#e2a993}.P{fill:#23358c}.Q{fill:#d3d2c7}.R{fill:#e8e7d9}.S{fill:url(#T)}.T{fill:#cbd4ff}.U{stroke-miterlimit:10}.V{fill:#1a2447}.W{fill:#cc9787}.X{fill:#997165}.Y{fill-rule:evenodd}.Z{stroke:#208da2}.a{stroke-width:.5}.b{fill:url(#A)}.c{fill:#f7b797}.d{fill:#995416}]]></style><defs><linearGradient id="A" xlink:href="#h"><stop offset="0" stop-color="#08bfba"/><stop offset="1" stop-color="#08a59d"/></linearGradient><linearGradient id="B" x1="378.92" y1="649.04" x2="408.95" y2="649.04" xlink:href="#h"><stop offset="0" stop-color="#fff"/><stop offset=".32" stop-color="#fcfcff"/><stop offset=".57" stop-color="#f2f4ff"/><stop offset=".79" stop-color="#e2e7ff"/><stop offset="1" stop-color="#cbd4ff"/><stop offset="1" stop-color="#cbd4ff"/></linearGradient><linearGradient id="C" x1="375.86" y1="739.47" x2="375.86" y2="624.03" xlink:href="#h"><stop offset="0" stop-color="#fff"/><stop offset=".11" stop-color="#f8f9ff"/><stop offset=".68" stop-color="#d7deff"/><stop offset="1" stop-color="#cbd4ff"/></linearGradient><linearGradient id="D" x1="386.66" y1="634.92" x2="405.36" y2="634.92" xlink:href="#A"/><linearGradient id="E" x1="348.52" y1="680.15" x2="374.03" y2="635.96" xlink:href="#B"/><linearGradient id="F" x1="698.21" y1="761.38" x2="701.86" y2="755.05" xlink:href="#h"><stop offset="0" stop-color="#213287"/><stop offset=".37" stop-color="#233490"/><stop offset=".97" stop-color="#293baa"/><stop offset="1" stop-color="#293bab"/></linearGradient><linearGradient id="G" x1="700.43" y1="787.32" x2="694.57" y2="777.18" xlink:href="#F"/><linearGradient id="H" x1="258.43" y1="829.06" x2="252.58" y2="818.91" xlink:href="#F"/><linearGradient id="I" x1="260.45" y1="856.08" x2="266.31" y2="845.93" xlink:href="#F"/><linearGradient id="J" x1="164.78" y1="574.24" x2="285.21" y2="574.24" xlink:href="#A"/><linearGradient id="K" x1="162" y1="545.98" x2="287.99" y2="545.98" xlink:href="#h"><stop offset="0" stop-color="#fff"/><stop offset=".71" stop-color="#dbe1ff"/><stop offset="1" stop-color="#cbd4ff"/></linearGradient><linearGradient id="L" x1="601.42" y1="955.75" x2="607.65" y2="955.75" xlink:href="#K"/><linearGradient id="M" x1="657.51" y1="923.32" x2="663.74" y2="923.32" xlink:href="#K"/><linearGradient id="N" x1="454.06" y1="870.69" x2="460.29" y2="870.69" xlink:href="#K"/><linearGradient id="O" x1="592.37" y1="877.46" x2="615.75" y2="877.46" xlink:href="#A"/><radialGradient id="P" cx="896.57" cy="845.37" fx="872.019" fy="827.196" r="33.79" gradientTransform="translate(0 -30.11) scale(1 1.04)" xlink:href="#h"><stop offset=".16" stop-color="#ced6ff"/><stop offset=".55" stop-color="#fff"/><stop offset=".66" stop-color="#fcfcff"/><stop offset=".73" stop-color="#f2f4ff"/><stop offset=".8" stop-color="#e2e7ff"/><stop offset=".87" stop-color="#cbd4ff"/><stop offset=".87" stop-color="#cbd4ff"/></radialGradient><linearGradient id="Q" x1="840.44" y1="864.85" x2="881.12" y2="841.37" xlink:href="#h"><stop offset="0" stop-color="#fff"/><stop offset=".24" stop-color="#f9faff"/><stop offset=".55" stop-color="#e9edff"/><stop offset=".91" stop-color="#ced7ff"/><stop offset=".94" stop-color="#cbd4ff"/></linearGradient><linearGradient id="R" x1="844.32" y1="838.43" x2="863.26" y2="894.63" xlink:href="#h"><stop offset="0" stop-color="#fff"/><stop offset=".13" stop-color="#f3f5ff"/><stop offset=".38" stop-color="#d2daff"/><stop offset=".43" stop-color="#cbd4ff"/></linearGradient><linearGradient id="S" y1="38.33" x2="60.48" y2="38.33" xlink:href="#h"><stop offset="0" stop-color="#08bfba"/><stop offset="1" stop-color="#08a59d"/></linearGradient><linearGradient id="T" x1=".9" y1="22.35" x2="20.05" y2="22.35" xlink:href="#h"><stop offset="0" stop-color="#08bfba"/><stop offset="1" stop-color="#08a59d"/></linearGradient><path id="U" d="M11.46 7.8h-.98a7.66 7.66 0 0 1-1-.07A5.93 5.93 0 0 1 7.23 7v4.6c0-1 1.46-1.87 3.24-1.87s3.25.84 3.25 1.87V7a5.76 5.76 0 0 1-2.26.79z"/><path id="V" d="M20.77 32.87l-6.3-21.37V6.4a3.19 3.19 0 0 1-.26.26 3.54 3.54 0 0 1-.49.34v4.6l6.33 21.5a3.19 3.19 0 0 1 .15 1c0 3.1-4.35 5.6-9.73 5.6S.75 37.17.75 34.07a3.19 3.19 0 0 1 .15-1L7.23 11.6V7a3.54 3.54 0 0 1-.49-.34 3.19 3.19 0 0 1-.26-.26v5.1L.18 32.87a4.11 4.11 0 0 0-.18 1.2c0 3.57 4.6 6.36 10.47 6.36S21 37.64 21 34.07a4.11 4.11 0 0 0-.23-1.2z"/><path id="W" d="M10.47 0c-2.6 0-4.63 1.32-4.63 3v1.87a2.38 2.38 0 0 0 .9 1.8 5.81 5.81 0 0 0 3.74 1.19 5.78 5.78 0 0 0 3.73-1.19 2.38 2.38 0 0 0 .9-1.8V3c0-1.68-2.03-3-4.64-3zm0 4.87C8.7 4.87 7.23 4 7.23 3s1.46-1.87 3.24-1.87S13.72 2 13.72 3s-1.46 1.87-3.25 1.87z"/><path id="X" d="M20.05 33.1c-.8-2.64-4.78-4.64-9.58-4.64S1.7 30.45.9 33.1l6.33-21.5c0 1 1.46 1.88 3.24 1.88s3.25-.84 3.25-1.88z"/><path id="Y" d="M26.8 11.16V38.4l18.14 10.48V21.63z"/><path id="Z" d="M26.8 11.16L8.66 21.63v27.24L26.8 38.4V11.16z"/><path id="a" d="M26.8 59.35V32.1l18.14-10.48v27.24L26.8 59.35z"/><path id="b" d="M8.66 21.63v27.24L26.8 59.35V32.1L8.66 21.63z"/><path id="c" d="M26.8 32.1L8.66 21.63l-6.12 10.6 18.14 10.48z"/><path id="d" d="M44.94 21.63L26.8 32.1l6.12 10.6 18.14-10.48z"/><path id="e" d="M44.94 21.63L26.8 32.1 8.66 21.63 26.8 11.16z"/><path id="f" d="M26.8 11.16L8.66 21.63l8.65 4.47 18.14-10.47z"/><path id="g" d="M44.94 21.63L26.8 32.1l-8.65-5.52L36.3 16.1z"/><linearGradient id="h" gradientUnits="userSpaceOnUse"/></defs><g><path d="M398.63 175.97l19.02 10.98v105.7l-19.02-11v-105.7z" class="E"/><path d="M436.68 281.66v-105.7l-19.03 10.98v105.7l19.03-11z" class="G"/><animateTransform attributeName="transform" type="translate" values="0 0;0 0;-61.49 35.5;-61.49 35.5;0 0;0 0" keyTimes="0;0.3;.37;.55;.62;1" dur="20s" repeatCount="indefinite"/></g><g class="Y"><path d="M797.6 276.62s2.66 10.76 3.77 14.3c2.15 6.82-11 12.57-23 12.57s-23.93-5.7-23-12.57c.47-3.67 3.77-14.3 3.77-14.3 0 6.94 7.23 12.57 19.26 12.57s19.2-5.63 19.2-12.57z" class="F"/><path d="M826.22 279c-2.7 3.33-20.37-12.72-35.84-5.1v-43.15c14.34-2.75 46.02 35.74 35.84 48.26z" fill="#098c82"/><path d="M730.05 279.73c2.7 3.33 20.37-12.72 35.85-5.1v-43.2c-14.32-2.75-46 35.75-35.85 48.3z" class="G"/><path d="M864.35 516.46V707c0 9.64-13.54 17.46-30.25 17.46s-30.23-7.82-30.23-17.46V516.46c0 9.64 13.54 17.45 30.23 17.45s30.25-7.8 30.25-17.45z" transform="translate(-55.78 -434.27)" class="b"/><path d="M778.33 23.53c-3.74 0-30.24 51.76-30.24 58.66 0 9.64 13.54 17.45 30.23 17.45s30.25-7.8 30.25-17.45c0-6.9-26.5-58.66-30.24-58.66z" class="F"/><path d="M770.34 169.14V163c-9.28-1.46-16.78-5.42-20.2-10.55v28.38z" fill="#4aa3a5"/><path d="M750.1 180.82c3.43 5.12 10.93 9.08 20.2 10.55v-22.23z" class="L"/><path d="M833.65 317.5a1.41 1.41 0 0 1-.63.19c-2.24.16-16.93-28.35-29.8-36.37v-33.78a22.35 22.35 0 0 1 1.82 1.89c11.47 13.23 32.1 58.93 29.36 67a1.84 1.84 0 0 1-.76 1.07z" class="E"/></g><path d="M835.46 316.46l-1.8 1a1.84 1.84 0 0 0 .76-1c2.75-8.1-17.9-53.8-29.36-67a22.35 22.35 0 0 0-1.82-1.89l1.82-1c11.56 10.43 36.77 66.22 30.4 69.9z" class="H"/><path d="M723.22 317.5a1.5 1.5 0 0 0 .63.19c2.24.16 16.93-28.35 29.8-36.37v-33.78a22.35 22.35 0 0 0-1.81 1.89c-11.48 13.23-32.1 58.93-29.37 67a1.84 1.84 0 0 0 .76 1.07z" class="G Y"/><path d="M721.44 316.46l1.8 1a1.84 1.84 0 0 1-.76-1c-2.74-8.1 17.9-53.8 29.37-67a22.35 22.35 0 0 1 1.81-1.89l-1.8-1c-11.57 10.43-36.78 66.22-30.42 69.9z" class="H"/><g transform="translate(-36 16)"><path d="M324.58 172.73s.8-7.92-2.64-10.7-13.23-3.3-16.54 2.3-.7 17.13 2.83 19 16.35-10.62 16.35-10.62z" class="F"/><path d="M306.83 177.73a4.82 4.82 0 0 0 1.17 1.3v.5a8.51 8.51 0 0 0 .18 1c.46 4.14-3.78 18.16-3.78 18.16 4.4 3 9.65-2.88 12-4 .3-.16.56-.3.76-.42.37-.2.57-.33.57-.33l-1.06-3.73-.44-3.47c.66.4 1.2.76 1.64 1 1.6 1 2.1 1.32 3.2.73a5.33 5.33 0 0 0 .49-.28c5.56-4.78 3.13-19.4.8-21.62-3-2.92-6.55-3-8.74-2a5.13 5.13 0 0 0-1.08.64c-1.83 1.47-3.7 5.6-4.38 9.7-.64-.5-1.28-.7-1.7-.42-.65.44-.5 1.9.37 3.23zm11.54 14.77l.78-.25-.13-.33c-.17.17-.4.36-.65.58z" class="M"/><path d="M320.22 165s-3-1.3-11.27 6.66c-2.7 1.33.33-9.6.33-9.6s9.2-.56 10.94 2.93z" class="F"/><path d="M324.4 360.5l-6.25-.26.6-8.43 6.24.27-.58 8.42z" class="M"/><path d="M317.44 358.92l-.7 6.43s17.67 1.52 17.9-.14c-1.5-3-7.42-5.5-10.3-6.06-2.98.43-2.96 1.33-6.9-.23z" class="C"/><path d="M312.2 367.57l-6.25-.27.6-8.42 6.24.26-.58 8.43z" class="M"/><g class="C"><path d="M305.22 365.97l-.7 6.44s17.67 1.52 17.9-.14c-1.5-3-7.42-5.5-10.3-6.07-2.9.44-2.9 1.33-6.9-.23zm9.66-127.5l7.84-2.77 1.05-.4c4.64-1.72 8.45-3.62 8.5-4.2 0 0 6.3 72.9-7.3 124.83a22.73 22.73 0 0 1-7.12.71s6.4-44.18 1.06-92.42c-.78-7.06-1.82-14.2-3.16-21.33l-.33-1.7-.55-2.7z"/><path d="M302.87 245.2l.28 7.35 2.93 110.4a16.06 16.06 0 0 0 7.1-.87c1.57-2.76 4.27-62.47 5.73-97.87l1.03-25.7a16.73 16.73 0 0 1-4.52 2.7c-.88.4-1.8.76-2.74 1.1a91 91 0 0 1-9.81 2.87z"/></g><path d="M348.08 194.12s-1.12 3.9-.3 5.8c.46 1-.4 4.24-.4 4.24l-1.47 5.5 6.3 1s-.5-10.57.6-11.86a5.66 5.66 0 0 0 1.11-3.11z" class="c"/><g transform="translate(-55.78 -434.27)"><path d="M381.5 625.1c6.4-.86 10.23 27.34 12.44 29 1.9 1.4 6.3-8.32 8-19 0 0 2.95-.25 6.46-.25 2.6 7.22-3.65 39.52-15.4 38.16-7.52-.92-19.33-46.85-11.5-47.9z" fill="url(#B)"/><path d="M358.65 739.46a31.66 31.66 0 0 0 8.58-1 41.92 41.92 0 0 0 4.3-1.32l4.08-1.7 2.4-1.2.55-.3c6.1-3.33 14.86-8.23 14.93-9.63 2.36-21-10-92.5-12-99.23a18.2 18.2 0 0 0-4.41-1.06 8.13 8.13 0 0 0-2.55.39 14.93 14.93 0 0 1-4.26 2.53l-.23.1c-2.27.93-6.73 1-9.2 1.9a18.69 18.69 0 0 0-2.78 4.1.81.81 0 0 0-.05.21c-.38 2.25.5 15.37 1 27.14.1 2.52.18 65 .23 67.27-.25 6.04-.3 9.28-.6 11.8z" fill="url(#C)"/></g><path d="M314.22 192.73a.74.74 0 0 0 .11.38l1.2 4.4.25.95c1.16 4.52 2.78 11.26 4.1 18.56a211.4 211.4 0 0 1 1.27 8c.5 3.66.86 67.32 1 70.78v.2a63.94 63.94 0 0 1 .06 3.89l.55-.3v-3.98c-.16-3.73-.57-67.68-1.12-71.6-.32-2.27-.7-4.54-1.1-6.76-1.33-7.48-3-14.4-4.17-19l-.26-1-1.18-4.34a5.22 5.22 0 0 1-.12-.41l-.3.1z" class="T"/><path d="M354 189.13c-1.66-1.94-3.57-3.77-4-3.32-.87.85 1.1 3.4 1.75 3.77z" class="c"/><path d="M404.93 647.1c0-2.76-3.17-5.87-7.74-7.3s-9-.74-10.53 1.53l12.52-18.57c-.3 1 .82 2.22 2.53 2.76s3.34.18 3.65-.8z" transform="translate(-55.78 -434.27)" fill="url(#D)"/><ellipse cx="395.5" cy="645.14" rx="5.62" ry="9.73" transform="matrix(.301538 -.953454 .953454 .301538 -394.65 393.42)" class="G"/><ellipse cx="402.27" cy="623.73" rx="1.87" ry="3.24" transform="matrix(.301538 -.953454 .953454 .301538 -369.5 384.92)" class="H"/><path d="M348.58 186.12l-.42-.1-.54-.13a8.4 8.4 0 0 1-.92-.37 5.78 5.78 0 0 1-1.91-1.42l-1.4 4.38c.3-1 1.95-1.35 3.66-.8s2.84 1.78 2.52 2.76l1.4-4.38a5.93 5.93 0 0 1-2.39.06z" class="B D"/><g fill="#eeedd9"><path d="M349.9 212.83l.44-22.27 1.4-4.43.14-.43a2.11 2.11 0 0 1-.33.18 3.16 3.16 0 0 1-.57.17l-1.4 4.38-.43 22.4a3.65 3.65 0 0 1-.16 1c-.93 3-5.84 4-11 2.42s-8.52-5.33-7.58-8.3a3.49 3.49 0 0 1 .43-.89l12.52-18.57 1.4-4.38a5.06 5.06 0 0 1-.37-.47 2.49 2.49 0 0 1-.16-.33l-.14.43-1.4 4.42-12.46 18.46a4.17 4.17 0 0 0-.53 1.08c-1.07 3.4 2.47 7.46 8.07 9.23s10.83.5 11.9-2.9a4 4 0 0 0 .22-1.2z" class="B"/><path d="M350 178.4c-2.48-.78-4.82-.14-5.32 1.46l-.55 1.72a2.4 2.4 0 0 0 .32 2 6.45 6.45 0 0 0 7.12 2.25 2.37 2.37 0 0 0 1.41-1.45l.55-1.73v-.05c.5-1.54-1.05-3.4-3.53-4.2zm-1.47 4.64c-1.7-.54-2.83-1.78-2.52-2.76s2-1.35 3.65-.8 2.84 1.78 2.53 2.76-1.96 1.35-3.66.8z" class="B"/></g><ellipse cx="404.87" cy="615.52" rx="1.87" ry="3.24" transform="matrix(.301538 -.953454 .953454 .301538 -359.86 381.66)" class="B D"/><path d="M320.48 212.3a11.54 11.54 0 0 1 3.34-4.48c2.27-1.7-.77-4.54-.77-4.54l-4.83 2.23-1.3 5.22-.63 2.26s3.13 1 3.3 1.33z" class="M"/><g class="F"><path d="M326.1 198.73l-5.2 9c-.15.25-.62.25-1.05 0s-.68-.66-.53-.9l5-8.68a2 2 0 0 0 1.42.57 2.17 2.17 0 0 0 .37.02z"/><path d="M325.07 198.6a2.7 2.7 0 0 0 .77.66l-1.73-1a2.85 2.85 0 0 1-1.44-2.51 8.66 8.66 0 0 1 4.33-7.5 2.87 2.87 0 0 1 2.89 0l1.73 1a3 3 0 0 0-1-.35 2.86 2.86 0 0 0-1.93.34 8.66 8.66 0 0 0-4.33 7.5 2.85 2.85 0 0 0 .71 1.86z"/></g><path d="M331.62 189.26a2.94 2.94 0 0 0-.95-.35 2.84 2.84 0 0 0-1.93.34 8.66 8.66 0 0 0-4.33 7.5 2.79 2.79 0 0 0 .66 1.85 2.74 2.74 0 0 0 .78.66 3 3 0 0 0 .72.3 2.91 2.91 0 0 0 2.17-.31c.15-.08.3-.17.43-.26a8.74 8.74 0 0 0 3.9-7.24 2.87 2.87 0 0 0-1.45-2.49zm-.32 6.47a7.1 7.1 0 0 1-2.13 2.3 3.87 3.87 0 0 1-.43.27 2.27 2.27 0 0 1-2.17.09l-.17-.08a2.33 2.33 0 0 1-1.17-2 7 7 0 0 1 3.51-6.08 2.24 2.24 0 0 1 1.56-.27 2.1 2.1 0 0 1 .77.28 2.32 2.32 0 0 1 1.18 2 7.06 7.06 0 0 1-.95 3.49z" class="C"/><path d="M330.3 189.93a2.27 2.27 0 0 0-1.57.27 7 7 0 0 0-3.5 6.08 2.27 2.27 0 0 0 .53 1.5 2.47 2.47 0 0 0 .63.53 2.31 2.31 0 0 0 2.34 0 6.86 6.86 0 0 0 2.56-2.57 7 7 0 0 0 .95-3.5 2.31 2.31 0 0 0-1.17-2 2.17 2.17 0 0 0-.77-.31z" fill="#0ff" opacity=".2"/><path d="M315.22 212.47a15 15 0 0 0 1.59-2.42c.16-.6-.1-5 .32-5.6s4.67-4.7 5.5-5a5.11 5.11 0 0 1 2.85.33c.58.26 2.06 1.76 1.34 2.25s-2.3-1.07-2.84-.94c0 0 1.47 1.07 1.3 1.56a7 7 0 0 1-.8 1.12c-1 1.26-2.12 3.3-3 3.42-1.28.2-.42-1.2-.55-1.56a.51.51 0 0 0-.92 0 63.27 63.27 0 0 0-3.5 7.34z" class="M"/><path d="M363.4 631.23s0-2.85-2.74-2.05-19.44 38.18-7.73 52.63 24.88-22.92 23.06-33c-.84-.73-1.73 0-4.8-3.07-5.57 4.2-9.32 19.58-10.94 18.7-3.23-1.78 3.16-33.22 3.16-33.22z" transform="translate(-55.78 -434.27)" fill="url(#E)"/><path d="M304.87 194.9s.46-2.45.87-2.7c.84.3 6.1-.73 6.3-.56a6.36 6.36 0 0 1 .28 2c-2.5 1.3-7.46 1.27-7.46 1.27zm12.58-5.98a7 7 0 0 1 1.3 1.23c-.6 1.26-3.53 2.58-3.53 2.58a8.29 8.29 0 0 1-.78-2.07 29.09 29.09 0 0 1 3.01-1.74z" class="I"/><path d="M310.86 160.5s-.48-7.1-9.65-6.25-16.47 10.53-13.42 19.87-.17 18.8-3.05 20.78c0 0 9.68-6.92 11.7-12.32s4.42-22.13 12.87-20.52c1.74.85 1.54-1.56 1.54-1.56z" class="F"/><path d="M343.7 187.52c-1.34.86-1.33 3.83-.1 4.84s7.38 3.8 9.24 6.47c0 0 3.06-1.5 1.93-8.8a1.92 1.92 0 0 0-1.46-1.57c-2.42-.55-8.53-1.62-9.6-.94z" class="c"/></g><path d="M721.14 774.62l-42.2-24.37a3.64 3.64 0 0 1-1.51-3.34 10.63 10.63 0 0 1 1.51-5.09l42.38 24.47a10.63 10.63 0 0 0-1.51 5.09 3.79 3.79 0 0 0 1.34 3.24z" transform="translate(-55.78 -434.27)" fill="url(#F)"/><path d="M781.8 199.67a3.62 3.62 0 0 0-3.66.35l-112.62 132-42.38-24.47c.94-1.62 112.36-131.82 112.36-131.82l.26-.15a3.6 3.6 0 0 1 3.65-.35z" class="F"/><path d="M783.33 203a10.53 10.53 0 0 1-1.52 5.09c-.94 1.62-112.62 132-112.62 132a3.15 3.15 0 0 1-5.17-3 10.63 10.63 0 0 1 1.51-5.09c.94-1.63 112.63-132 112.63-132a3.16 3.16 0 0 1 5.17 3z" class="C"/><path d="M736.17 184.85l31.05 17.92m-41.12-6.14l31.06 17.93m-41.12-6.16l31.06 17.93m-41.12-6.13l31.06 17.92m-41.12-6.14l31.06 17.93m-41.12-6.15l31.05 17.93m-41.1-6.15l31.05 17.93m-41.1-6.14l31.05 17.93m-41.1-6.16l31.05 17.93m-41.1-6.13l31.05 17.93m-41.1-6.15l31.05 17.93" class="E U Z a"/><path d="M677.55 326.94a1.35 1.35 0 0 0-1.36.14 3.89 3.89 0 0 0-1.37 1.44 4 4 0 0 0-.57 1.9V378l-2.27-1.3v-47.6a4.3 4.3 0 0 1 1.94-3.38 1.34 1.34 0 0 1 1.36-.13z" class="I"/><path d="M678.12 375.78l-3.9 2.23v-47.6a4 4 0 0 1 .57-1.9 3.89 3.89 0 0 1 1.37-1.44 1.17 1.17 0 0 1 1.92 1.11z" class="J"/><ellipse cx="731.98" cy="764.53" rx="1.2" ry=".69" transform="matrix(.499698 -.8662 .8662 .499698 -351.82 582.19)" class="C"/><path d="M711.12 287.54a1.39 1.39 0 0 0-1.37.13 4 4 0 0 0-1.93 3.34v67.72l-2.26-1.3v-67.7a3.89 3.89 0 0 1 .56-1.9 4 4 0 0 1 1.37-1.45 1.37 1.37 0 0 1 1.36-.13z" class="I"/><path d="M711.68 356.52l-3.86 2.2V291a4 4 0 0 1 1.93-3.34 1.39 1.39 0 0 1 1.37-.13 1.35 1.35 0 0 1 .56 1.25z" class="J"/><ellipse cx="765.54" cy="725.12" rx="1.2" ry=".69" transform="matrix(.499698 -.8662 .8662 .499698 -300.9 591.55)" class="C"/><path d="M744.68 248.13a1.35 1.35 0 0 0-1.36.14 4 4 0 0 0-1.93 3.34v87.36l-2.26-1.3V250.3a4 4 0 0 1 .57-1.9 3.86 3.86 0 0 1 1.36-1.44 1.34 1.34 0 0 1 1.37-.13z" class="I"/><path d="M745.22 336.73l-3.86 2.23V251.6a4 4 0 0 1 1.93-3.34 1.35 1.35 0 0 1 1.36-.14 1.36 1.36 0 0 1 .57 1.25z" class="J"/><ellipse cx="799.11" cy="685.72" rx="1.2" ry=".69" transform="matrix(.499698 -.8662 .8662 .499698 -249.97 600.92)" class="C"/><path d="M778.22 208.73a1.32 1.32 0 0 0-1.36.13 4 4 0 0 0-1.37 1.44 4.08 4.08 0 0 0-.57 1.9v107.74l-2.27-1.3V210.9a4 4 0 0 1 1.93-3.34 1.34 1.34 0 0 1 1.36-.13z" class="I"/><path d="M778.82 317.73l-3.86 2.23V212.2a4.08 4.08 0 0 1 .57-1.9 4 4 0 0 1 1.37-1.44 1.17 1.17 0 0 1 1.92 1.11z" class="J"/><ellipse cx="832.68" cy="646.31" rx="1.2" ry=".69" transform="matrix(.499698 -.8662 .8662 .499698 -199.05 610.28)" class="C"/><path d="M650.4 331.8a1.26 1.26 0 0 1 1.28.12 4 4 0 0 1 1.81 3.14V376l2.13-1.26v-40.9a3.66 3.66 0 0 0-.53-1.78 3.74 3.74 0 0 0-1.28-1.36 1.26 1.26 0 0 0-1.28-.12z" class="I"/><path d="M649.87 373.9l3.62 2.1v-40.92a4 4 0 0 0-1.81-3.14 1.26 1.26 0 0 0-1.28-.12 1.25 1.25 0 0 0-.53 1.17z" class="J"/><ellipse cx="707.45" cy="769.19" rx=".38" ry=".66" transform="matrix(.8662 -.499698 .499698 .8662 -345.5 22.23)" class="L"/><path d="M570.1 285.38a1.27 1.27 0 0 1 1.28.13 3.63 3.63 0 0 1 1.28 1.35 3.82 3.82 0 0 1 .54 1.78v40.92l2.13-1.22v-40.92a4 4 0 0 0-1.81-3.14 1.27 1.27 0 0 0-1.28-.13z" class="Q"/><path d="M569.56 327.47l3.62 2.1v-40.92a3.82 3.82 0 0 0-.54-1.78 3.63 3.63 0 0 0-1.28-1.35 1.27 1.27 0 0 0-1.28-.13 1.29 1.29 0 0 0-.53 1.17z" class="R"/><ellipse cx="627.14" cy="722.76" rx=".38" ry=".66" transform="matrix(.8662 -.499698 .499698 .8662 -333.05 -24.12)" class="L"/><path d="M489.8 238.95a1.25 1.25 0 0 1 1.27.13 3.73 3.73 0 0 1 1.29 1.35 3.81 3.81 0 0 1 .53 1.79v40.92l2.12-1.23v-40.86a.13.13 0 0 0 0-.06 3.64 3.64 0 0 0-.54-1.78 3.74 3.74 0 0 0-1.28-1.36 1.26 1.26 0 0 0-1.28-.12z" class="Q"/><path d="M489.22 281.05l3.63 2.1v-40.92a3.81 3.81 0 0 0-.53-1.79 3.73 3.73 0 0 0-1.29-1.35 1.25 1.25 0 0 0-1.27-.13 1.28 1.28 0 0 0-.54 1.18z" class="R"/><ellipse cx="546.84" cy="676.34" rx=".38" ry=".66" transform="matrix(.8662 -.499698 .499698 .8662 -320.59 -70.47)" class="L"/><path d="M720 773.7a3.41 3.41 0 0 1-1.43 3.13l-39.78 23a3.41 3.41 0 0 0 1.42-3.13 10.71 10.71 0 0 0-4.85-8.41l39.8-23a10.78 10.78 0 0 1 4.85 8.41z" transform="translate(-55.78 -434.27)" fill="url(#G)"/><path d="M659.4 331l-39.8 23-2-1.16-170.72-98.58a3.37 3.37 0 0 0-3.42-.34l39.78-23a3.4 3.4 0 0 1 3.43.33l.24.14 172.3 99.53z" class="F"/><path d="M442 257.04a10.76 10.76 0 0 0 4.86 8.4l172.76 99.74a3 3 0 0 0 4.86-2.79 10.76 10.76 0 0 0-4.86-8.41l-2-1.16-170.7-98.6a3 3 0 0 0-4.86 2.81z" class="C"/><path d="M488.2 238.64l-29.15 16.83m45.25-7.57l-29.15 16.83m45.28-7.6l-29.15 16.82m45.27-7.58L507.4 283.2m45.27-7.57l-29.15 16.83m45.26-7.58l-29.15 16.82m45.27-7.58l-29.15 16.83m45.27-7.58l-29.15 16.83m45.27-7.58L588 329.44m45.26-7.58L604.1 338.7m45.28-7.6l-29.15 16.83" class="E U Z a"/><path d="M610.1 355.1a1.29 1.29 0 0 1 1.28.12 3.74 3.74 0 0 1 1.28 1.36 3.82 3.82 0 0 1 .54 1.78v40.92l2.13-1.22v-40.93a3.69 3.69 0 0 0-.53-1.78 3.63 3.63 0 0 0-1.28-1.35 1.27 1.27 0 0 0-1.28-.13z" class="I"/><path d="M609.56 397.2l3.62 2.1v-40.92a3.82 3.82 0 0 0-.54-1.78 3.74 3.74 0 0 0-1.28-1.36 1.11 1.11 0 0 0-1.81 1z" class="J"/><ellipse cx="667.14" cy="792.48" rx=".65" ry="1.13" transform="matrix(.8662 -.499698 .499698 .8662 -362.54 5.2)" class="C"/><path d="M529.8 308.73a1.26 1.26 0 0 1 1.28.12 4 4 0 0 1 1.81 3.14v40.92l2.13-1.23v-40.95a3.66 3.66 0 0 0-.53-1.78 3.74 3.74 0 0 0-1.28-1.36 1.26 1.26 0 0 0-1.28-.12z" class="I"/><path d="M529.22 350.73l3.62 2.1v-40.88a4 4 0 0 0-1.81-3.14 1.26 1.26 0 0 0-1.28-.12 1.25 1.25 0 0 0-.53 1.17z" class="J"/><ellipse cx="586.84" cy="746.06" rx=".65" ry="1.13" transform="matrix(.8662 -.499698 .499698 .8662 -350.08 -41.14)" class="C"/><path d="M449.5 262.25a1.27 1.27 0 0 1 1.28.13 3.79 3.79 0 0 1 1.28 1.35 3.69 3.69 0 0 1 .53 1.79v40.9l2.12-1.22v-40.86a.13.13 0 0 0 0-.06 4 4 0 0 0-1.82-3.14 1.26 1.26 0 0 0-1.28-.12z" class="Q"/><path d="M448.95 304.34l3.63 2.1v-40.92a3.69 3.69 0 0 0-.53-1.79 3.79 3.79 0 0 0-1.28-1.35 1.27 1.27 0 0 0-1.28-.13 1.25 1.25 0 0 0-.53 1.17z" class="R"/><ellipse cx="506.54" cy="699.63" rx=".38" ry=".66" transform="matrix(.87 -.5 .5 .87 -337.63 -87.49)" class="L"/><path d="M208.4 373.55a1.24 1.24 0 0 1 1.27.12 4 4 0 0 1 1.82 3.14v40.92l2.12-1.23v-40.86a.13.13 0 0 0 0-.06 4.08 4.08 0 0 0-1.82-3.14 1.29 1.29 0 0 0-1.28-.12z" class="Q"/><path d="M207.87 415.64l3.62 2.1V376.8a4 4 0 0 0-1.82-3.14 1.24 1.24 0 0 0-1.27-.12 1.27 1.27 0 0 0-.54 1.17z" class="R"/><ellipse cx="265.46" cy="810.93" rx=".38" ry=".66" transform="matrix(.8662 -.499698 .499698 .8662 -425.52 -193.07)" class="L"/><path d="M128.1 327.12a1.27 1.27 0 0 1 1.28.13 4 4 0 0 1 1.81 3.13v40.92l2.12-1.22v-40.92a4 4 0 0 0-1.81-3.14 1.29 1.29 0 0 0-1.28-.13z" class="Q"/><path d="M127.57 369.2l3.62 2.1v-40.92a4 4 0 0 0-1.81-3.13 1.1 1.1 0 0 0-1.81 1z" class="R"/><ellipse cx="185.15" cy="764.5" rx=".38" ry=".66" transform="matrix(.8662 -.499698 .499698 .8662 -413.06 -239.42)" class="L"/><path d="M47.8 280.73a1.29 1.29 0 0 1 1.28.13 4 4 0 0 1 1.81 3.14v40.92L53 323.7v-40.96a3.66 3.66 0 0 0-.53-1.78 3.74 3.74 0 0 0-1.28-1.36 1.26 1.26 0 0 0-1.28-.12z" class="Q"/><path d="M47.22 322.8l3.62 2.1v-40.92a4 4 0 0 0-1.81-3.14 1.1 1.1 0 0 0-1.81 1z" class="R"/><ellipse cx="104.84" cy="718.08" rx=".38" ry=".66" transform="matrix(.8662 -.499698 .499698 .8662 -400.61 -285.77)" class="L"/><path d="M278,815.43a3.41,3.41,0,0,1-1.42,3.13l-39.78,23a3.38,3.38,0,0,0,1.42-3.13A10.71,10.71,0,0,0,233.4,830l39.78-23a10.71,10.71,0,0,1,4.85,8.41Z" transform="translate(-55.78 -434.27)" fill="url(#H)"/><path d="M217.4 372.73l-39.78 23-2-1.15-170.77-98.6a3.43 3.43 0 0 0-3.43-.34l39.78-23a2.56 2.56 0 0 1 1.28-.33 4.34 4.34 0 0 1 2.15.67l.25.14 172.34 99.56z" class="F"/><path d="M0 298.78a10.72 10.72 0 0 0 4.85 8.4l172.77 99.75a3 3 0 0 0 4.85-2.8 10.71 10.71 0 0 0-4.85-8.4l-2-1.16-170.77-98.6A3 3 0 0 0 0 298.78z" class="C"/><g class="U Z a"><path d="M46.2 280.38L17.04 297.2" class="E"/><path d="M62.3 289.63l-29.15 16.83m45.28-7.58L49.28 315.7m45.27-7.58L65.4 324.95m45.27-7.58L81.52 334.2m45.28-7.58l-29.15 16.83m45.25-7.6l-29.15 16.83m45.28-7.6l-29.15 16.83m45.26-7.57L146 371.2m45.26-7.6l-29.15 16.83" fill="none"/><path d="M207.38 372.85l-29.15 16.83" class="E"/></g><path d="M168.1 396.84a1.27 1.27 0 0 1 1.28.13 4 4 0 0 1 1.81 3.13v40.92l2.12-1.22v-40.92a4 4 0 0 0-1.81-3.14 1.27 1.27 0 0 0-1.28-.13z" class="I"/><path d="M167.57 438.93l3.62 2.1V400.1a4 4 0 0 0-1.81-3.13 1.1 1.1 0 0 0-1.81 1z" class="J"/><ellipse cx="225.15" cy="834.22" rx=".65" ry="1.13" transform="matrix(.8662 -.499698 .499698 .8662 -442.55 -210.1)" class="C"/><path d="M87.8 350.42a1.26 1.26 0 0 1 1.28.12 4.08 4.08 0 0 1 1.82 3.14v40.92l2.12-1.23v-40.92a3.69 3.69 0 0 0-.53-1.78 3.74 3.74 0 0 0-1.28-1.36 1.29 1.29 0 0 0-1.28-.12z" class="I"/><path d="M87.22 392.5l3.62 2.1v-40.87a4.08 4.08 0 0 0-1.82-3.14 1.26 1.26 0 0 0-1.28-.12 1.28 1.28 0 0 0-.53 1.17z" class="J"/><ellipse cx="144.84" cy="787.8" rx=".65" ry="1.13" transform="matrix(.8662 -.499698 .499698 .8662 -430.1 -256.45)" class="C"/><path d="M7.5 304a1.27 1.27 0 0 1 1.28.13 4 4 0 0 1 1.81 3.14v40.92l2.13-1.23v-40.92a4 4 0 0 0-1.81-3.14 1.26 1.26 0 0 0-1.28-.16z" class="I"/><path d="M6.96 346.08l3.62 2.1v-40.92a4 4 0 0 0-1.81-3.14 1.1 1.1 0 0 0-1.81 1.05z" class="J"/><ellipse cx="64.54" cy="741.38" rx=".65" ry="1.13" transform="matrix(.8662 -.499698 .499698 .8662 -417.65 -302.79)" class="C"/><path d="M198.57 400.37a1.29 1.29 0 0 0-1.28.12 3.82 3.82 0 0 0-1.28 1.36 3.77 3.77 0 0 0-.53 1.78v40.92l-2.12-1.23v-40.86a.13.13 0 0 1 0-.06 4.08 4.08 0 0 1 1.82-3.14 1.29 1.29 0 0 1 1.28-.12z" class="I"/><path d="M199.1 442.46l-3.63 2.1v-40.92a3.77 3.77 0 0 1 .53-1.78 3.82 3.82 0 0 1 1.28-1.36 1.29 1.29 0 0 1 1.28-.12 1.24 1.24 0 0 1 .53 1.17z" class="J"/><ellipse cx="253.08" cy="837.75" rx=".66" ry=".38" transform="matrix(.499698 -.8662 .8662 .499698 -654.8 204.02)" class="L"/><path d="M278.88 353.94a1.27 1.27 0 0 0-1.28.13 4 4 0 0 0-1.81 3.14v40.9l-2.12-1.22v-40.92a4 4 0 0 1 1.81-3.14 1.26 1.26 0 0 1 1.28-.12z" fill="#acbcec"/><path d="M279.4 396.03l-3.62 2.1V357.2a4 4 0 0 1 1.81-3.14 1.1 1.1 0 0 1 1.81 1z" fill="#e5e8f2"/><ellipse cx="333.39" cy="791.32" rx=".66" ry=".38" transform="matrix(.499698 -.8662 .8662 .499698 -574.42 250.36)" class="L"/><path d="M359.22 307.52a1.29 1.29 0 0 0-1.28.12 3.74 3.74 0 0 0-1.28 1.36 3.63 3.63 0 0 0-.53 1.78v40.95L354 350.5v-40.95a3.69 3.69 0 0 1 .53-1.78 3.74 3.74 0 0 1 1.28-1.36 1.29 1.29 0 0 1 1.28-.12z" fill="#c0c7da"/><path d="M359.72 349.6l-3.62 2.12v-40.95a3.63 3.63 0 0 1 .53-1.78 3.74 3.74 0 0 1 1.28-1.36 1.29 1.29 0 0 1 1.28-.12 1.26 1.26 0 0 1 .53 1.17z" fill="#e6e8e6"/><ellipse cx="413.7" cy="744.9" rx=".66" ry=".38" transform="matrix(.499698 -.8662 .8662 .499698 -494.03 296.69)" class="L"/><path d="M439.5 261.1a1.27 1.27 0 0 0-1.28.13 3.63 3.63 0 0 0-1.28 1.35 3.82 3.82 0 0 0-.54 1.78v40.92l-2.13-1.22v-40.92a4 4 0 0 1 1.81-3.14 1.26 1.26 0 0 1 1.28-.12z" class="Q"/><path d="M440.03 303.18l-3.62 2.1v-40.93a3.82 3.82 0 0 1 .54-1.78 3.63 3.63 0 0 1 1.28-1.35 1.1 1.1 0 0 1 1.81 1z" class="R"/><ellipse cx="494.01" cy="698.47" rx=".66" ry=".38" transform="matrix(.5 -.87 .87 .5 -413.65 343.03)" class="L"/><path d="M285.5 857a10.8 10.8 0 0 0-4.86 8.41 3.42 3.42 0 0 0 1.43 3.14l-39.78-23a3.4 3.4 0 0 1-1.43-3.13 10.8 10.8 0 0 1 4.86-8.41z" transform="translate(-55.78 -434.27)" fill="url(#I)"/><path d="M483.93 277.62a3.4 3.4 0 0 0-3.43.33l-11.7 6.78-239.08 138-39.78-23 .13-.07 250.4-144.54.24-.15a3.4 3.4 0 0 1 3.43-.33z" class="F"/><path d="M485.36 280.73a10.8 10.8 0 0 1-4.86 8.41l-250.8 144.8a3 3 0 0 1-4.86-2.8 10.8 10.8 0 0 1 4.86-8.41l2-1.16 248.8-143.6a3 3 0 0 1 4.86 2.8z" class="C"/><path d="M441.74 261.17L470.88 278m-45.26-7.58l29.15 16.83m-45.27-7.58l29.15 16.82m-45.27-7.6l29.15 16.83m-45.27-7.57L406.4 315m-45.26-7.6l29.15 16.82m-45.27-7.57l29.15 16.83m-45.27-7.58l29.15 16.83m-45.27-7.58l29.15 16.82m-45.27-7.57l29.15 16.83m-45.26-7.6l29.14 16.83m-45.26-7.57l29.15 16.82m-45.28-7.6l29.15 16.83m-45.25-7.58l29.15 16.83m-45.28-7.58l29.15 16.83m-45.27-7.6l29.15 16.83" class="E U Z a"/><path d="M238.88 423.66a1.27 1.27 0 0 0-1.28.13 3.63 3.63 0 0 0-1.28 1.35 3.69 3.69 0 0 0-.53 1.78v40.92l-2.12-1.22v-40.9a4 4 0 0 1 1.81-3.14 1.26 1.26 0 0 1 1.28-.12z" class="I"/><path d="M239.4 465.73l-3.62 2.1v-40.9a3.69 3.69 0 0 1 .53-1.78 3.63 3.63 0 0 1 1.28-1.35 1.1 1.1 0 0 1 1.81 1z" class="J"/><ellipse cx="293.39" cy="861.04" rx="1.13" ry=".65" transform="matrix(.499698 -.8662 .8662 .499698 -654.81 250.59)" class="C"/><path d="M319.22 377.24a1.29 1.29 0 0 0-1.28.12 4 4 0 0 0-1.82 3.14v40.92L314 420.2v-40.92a3.69 3.69 0 0 1 .53-1.78 3.74 3.74 0 0 1 1.28-1.36 1.29 1.29 0 0 1 1.28-.12z" class="I"/><path d="M319.72 419.33l-3.62 2.1V380.5a4 4 0 0 1 1.82-3.14 1.11 1.11 0 0 1 1.81 1z" class="J"/><ellipse cx="373.7" cy="814.62" rx="1.13" ry=".65" transform="matrix(.499698 -.8662 .8662 .499698 -574.43 296.92)" class="C"/><path d="M399.5 330.8a1.29 1.29 0 0 0-1.28.13 4 4 0 0 0-1.81 3.14V375l-2.13-1.27v-40.88a3.66 3.66 0 0 1 .53-1.78 3.74 3.74 0 0 1 1.28-1.36 1.26 1.26 0 0 1 1.28-.12z" class="I"/><path d="M400.02 372.9l-3.62 2.1v-40.92a4 4 0 0 1 1.81-3.14 1.1 1.1 0 0 1 1.81 1z" class="J"/><ellipse cx="454" cy="768.2" rx="1.13" ry=".65" transform="matrix(.499698 -.8662 .8662 .499698 -494.05 343.25)" class="C"/><path d="M479.8 284.4a1.27 1.27 0 0 0-1.28.13 4 4 0 0 0-1.81 3.13v40.92l-2.12-1.22v-40.92a4 4 0 0 1 1.81-3.14 1.26 1.26 0 0 1 1.28-.12z" class="I"/><path d="M480.32 326.48l-3.62 2.1v-40.93a4 4 0 0 1 1.81-3.13 1.1 1.1 0 0 1 1.81 1z" class="J"/><ellipse cx="534.3" cy="721.77" rx="1.13" ry=".65" transform="matrix(.499698 -.8662 .8662 .499698 -413.67 389.59)" class="C"/><g transform="translate(280.28 328.83)"><path d="M20.05 33.1c-.8-2.64-4.78-4.64-9.58-4.64S1.7 30.45.9 33.1l6.33-21.5c0 1 1.46 1.88 3.24 1.88s3.25-.84 3.25-1.88z" class="S"/><ellipse cx="10.47" cy="34.07" rx="9.73" ry="5.62" class="G"/><ellipse cx="10.47" cy="11.6" rx="3.24" ry="1.87" class="H"/><use xlink:href="#U" class="B D"/><g class="K"><use xlink:href="#V" class="B"/><use xlink:href="#W" class="B"/></g><ellipse cx="10.47" cy="2.99" rx="3.24" ry="1.87" class="B D"/><animateTransform attributeName="transform" type="translate" values="280.28, 328.83;345.23, 291.33;345.23, 291.33" keyTimes="0;.25;1" dur="20s" repeatCount="indefinite"/></g><g transform="translate(215.33 366.33)"><path d="M20.05 33.1c-.8-2.64-4.78-4.64-9.58-4.64S1.7 30.45.9 33.1l6.33-21.5c0 1 1.46 1.88 3.24 1.88s3.25-.84 3.25-1.88z" class="S"/><ellipse cx="10.47" cy="34.07" rx="9.73" ry="5.62" class="G"/><ellipse cx="10.47" cy="11.6" rx="3.24" ry="1.87" class="H"/><use xlink:href="#U" class="B D"/><g class="K"><use xlink:href="#V" class="B"/><use xlink:href="#W" class="B"/></g><ellipse cx="10.47" cy="2.99" rx="3.24" ry="1.87" class="B D"/><animateTransform attributeName="transform" type="translate" values="215.33, 366.33;280.28, 328.83;280.28, 328.83" keyTimes="0;.25;1" dur="20s" repeatCount="indefinite"/></g><g transform="translate(150.38 328.83)"><path d="M20.05 33.1c-.8-2.64-4.78-4.64-9.58-4.64S1.7 30.45.9 33.1l6.33-21.5c0 1 1.46 1.88 3.24 1.88s3.25-.84 3.25-1.88z" class="S"/><ellipse cx="10.47" cy="34.07" rx="9.73" ry="5.62" class="G"/><ellipse cx="10.47" cy="11.6" rx="3.24" ry="1.87" class="H"/><use xlink:href="#U" class="B D"/><g class="K"><use xlink:href="#V" class="B"/><use xlink:href="#W" class="B"/></g><ellipse cx="10.47" cy="2.99" rx="3.24" ry="1.87" class="B D"/><animateTransform attributeName="transform" type="translate" values="150.38, 328.83;215.33, 366.33;215.33, 366.33" keyTimes="0;.25;1" dur="20s" repeatCount="indefinite"/></g><g transform="translate(85.43 291.33)"><path d="M20.05 33.1c-.8-2.64-4.78-4.64-9.58-4.64S1.7 30.45.9 33.1l6.33-21.5c0 1 1.46 1.88 3.24 1.88s3.25-.84 3.25-1.88z" class="S"/><ellipse cx="10.47" cy="34.07" rx="9.73" ry="5.62" class="G"/><ellipse cx="10.47" cy="11.6" rx="3.24" ry="1.87" class="H"/><use xlink:href="#U" class="B D"/><g class="K"><use xlink:href="#V" class="B"/><use xlink:href="#W" class="B"/></g><ellipse cx="10.47" cy="2.99" rx="3.24" ry="1.87" class="B D"/><animateTransform attributeName="transform" type="translate" values="85.43, 291.33;150.38, 328.83;150.38, 328.83" keyTimes="0;.25;1" dur="20s" repeatCount="indefinite"/></g><g transform="translate(20.47 253.83)"><g><g class="D"><use xlink:href="#X" class="B"/><ellipse cx="10.47" cy="34.07" rx="9.73" ry="5.62" class="B"/><ellipse cx="10.47" cy="11.6" rx="3.24" ry="1.87" class="B"/><use xlink:href="#U" class="B"/></g><g class="K"><use xlink:href="#V" class="B"/><use xlink:href="#W" class="B"/></g><ellipse cx="10.47" cy="2.99" rx="3.24" ry="1.87" class="B D"/><animateTransform attributeName="transform" type="translate" values="20.47, 253.83;85.43, 291.33;85.43, 291.33" keyTimes="0;.25;1" dur="20s" repeatCount="indefinite"/></g><g opacity="0"><g class="D"><use xlink:href="#X" class="B"/><ellipse cx="10.47" cy="34.07" rx="9.73" ry="5.62" class="B"/><ellipse cx="10.47" cy="11.6" rx="3.24" ry="1.87" class="B"/><use xlink:href="#U" class="B"/></g><g class="K"><use xlink:href="#V" class="B"/><use xlink:href="#W" class="B"/></g><ellipse cx="10.47" cy="2.99" rx="3.24" ry="1.87" class="B D"/><animate attributeName="opacity" values="0;0;1;1" keyTimes="0;.35;.45;1" dur="20s" repeatCount="indefinite"/></g></g><g transform="translate(-2.5)"><g class="C"><path d="M105.13 290.5l2.97-1.72 8.94 5.16-2.97 1.72-8.94-5.16z"/><path d="M105.13 292.55v-2.06l8.94 5.16v2.06l-8.94-5.16z"/><path d="M117.04 296v-2.07l-2.97 1.72v2.06l2.97-1.7z"/></g><path d="M114 107.77v187.2l-7.8-4.5v-187.2l7.8 4.5z" class="K"/><path d="M115.95 113.6v180.26l-1.94 1.12V114.72l1.94-1.12z" class="T"/><g class="C"><path d="M127.2 233.72h3.84v7h-3.84z"/><path d="M161.22 220.28a7.41 7.41 0 0 0 3.71-6.43v-.46l3.72 2.14v4.75l-3.72 2.15-59.5 34.3a14.8 14.8 0 0 0-7.4 12.82v18.56l-3.7-16v-6.77a11.16 11.16 0 0 1 5.58-9.67l1.84-1.06 59.47-34.33z"/><path d="M164.88 222.43a7.43 7.43 0 0 0 3.72-6.43v-.47l3.7-2.14v2.64a11.08 11.08 0 0 1-5.54 9.6l-61.3 35.4a7.43 7.43 0 0 0-3.72 6.43v4.64l-3.7 16v-20.7a11.13 11.13 0 0 1 5.56-9.63l61.28-35.38z"/></g><path d="M164.78 505.18v62.58a22.64 22.64 0 0 0 4.56 13.29l1.6 2 44.43 56.53c1.58 2.14 5.27 3.65 9.6 3.65s8.25-1.6 9.73-3.86L279.1 583c3.92-4.6 6.12-9.78 6.12-15.26v-62.56c0 19.2-27 34.77-60.2 34.77s-60.22-15.56-60.22-34.77z" transform="translate(-55.78 -434.27)" fill="url(#J)" class="Y"/><ellipse cx="169.22" cy="70.92" rx="60.21" ry="34.76" class="H"/><path d="M109 36.15V70.9c0-19.18 27-34.76 60.22-34.76s60.2 15.58 60.2 34.76V36.15c0-19.2-27-34.76-60.2-34.76S109 16.96 109 36.15z" class="B D"/><g class="B D"><path d="M169.22 71.42c-33.47 0-60.7-15.82-60.7-35.26S135.75.9 169.22.9s60.7 15.84 60.7 35.27-27.23 35.26-60.7 35.26z"/><path d="M169.22 1.4c33.26 0 60.2 15.57 60.2 34.77s-26.96 34.76-60.2 34.76S109 55.36 109 36.16 136 1.4 169.22 1.4m0-1c-16.25 0-31.55 3.67-43.07 10.32C114.45 17.46 108 26.5 108 36.16s6.44 18.7 18.14 25.44c11.52 6.66 26.82 10.32 43.07 10.32s31.56-3.66 43.08-10.32c11.7-6.75 18.13-15.8 18.13-25.44S224 17.46 212.3 10.7C200.78 4.06 185.48.4 169.22.4z"/></g><path d="M169.22 1.4c33.25 0 60.2 15.57 60.2 34.76v97.34c0 5.48-2.2 10.66-6.12 15.26l-44.36 56.42c-1.48 2.25-5.28 3.86-9.73 3.86s-8-1.5-9.6-3.65l-44.4-56.56-1.6-2a22.64 22.64 0 0 1-4.56-13.29V36.15c0-19.2 27-34.76 60.22-34.76m0-1.4c-34 0-61.6 16.22-61.6 36.15v97.34a24 24 0 0 0 4.86 14.15l1.6 2 44.48 56.6c1.95 2.57 6 4.15 10.66 4.15 4.8 0 9-1.74 10.86-4.44l44.3-56.32c4.22-5 6.45-10.55 6.45-16.17v-97.3c0-19.93-27.63-36.15-61.6-36.15z" class="B D"/><g class="C"><path d="M233.3 290.5l-2.97-1.72-8.94 5.16 2.97 1.72 8.94-5.16z"/><path d="M233.3 292.55v-2.06l-8.94 5.16v2.06l8.94-5.16z"/><path d="M221.4 296v-2.07l2.97 1.72v2.06l-2.97-1.7z"/></g><path d="M224.43 107.77v187.2l7.78-4.5v-187.2l-7.78 4.5z" class="T"/><path d="M222.48 113.6v180.26l1.95 1.12V114.72l-1.95-1.12zM114 107.77v89.87l-7.8-4.5v-89.87l7.8 4.5z" class="K"/><path d="M115.95 113.6v82.92l-1.94 1.12v-82.92l1.94-1.12z" class="T"/><path d="M162 524.65v13.9a22.93 22.93 0 0 0 2.78 10.7c7.9 14.87 31.88 25.67 60.22 25.67s52.3-10.8 60.2-25.67a24.09 24.09 0 0 0 1.39-3.08 21.63 21.63 0 0 0 1.39-7.62v-13.9a21.63 21.63 0 0 0-1.39-7.65v7.62a22.27 22.27 0 0 1-1.39 7.5c-5.94 16-30.65 28.07-60.2 28.07s-54.3-12-60.22-28.07a21.59 21.59 0 0 1-1.39-7.5V517a21.63 21.63 0 0 0-1.39 7.65z" transform="translate(-55.78 -434.27)" fill="url(#K)"/><path d="M158.5 203.85l.06.07c1.95 2.56 6 4.15 10.66 4.15 4.8 0 9-1.74 10.86-4.44l.26-.34v6.44c0 3.76-4.88 6.7-11.12 6.7s-11.12-2.95-11.12-6.7v-6.4z" class="C"/><path d="M93.63 269.26v4.17c0 1.58 1.93 2.83 4.4 2.83s4.4-1.25 4.4-2.83v-4.17a1.84 1.84 0 0 1-.13.69 2.52 2.52 0 0 1-.58.86 6 6 0 0 1-7.4 0 2.52 2.52 0 0 1-.58-.86 1.84 1.84 0 0 1-.13-.69z" class="G"/><path d="M94.33 267.73v1.54c0 1.2 1.66 2.15 3.7 2.15s3.7-1 3.7-2.15v-1.54a2.2 2.2 0 0 1 .7 1.54c0 1.6-1.94 2.84-4.4 2.84s-4.4-1.24-4.4-2.84a2.2 2.2 0 0 1 .7-1.54zm61.17-45a2.54 2.54 0 0 1 1.19-.35h.14a2.3 2.3 0 0 1 .69.1 2.83 2.83 0 0 1 .57.23 6.32 6.32 0 0 1 3.14 5.44 2 2 0 0 1-.09.64 1.83 1.83 0 0 1-.34.75 2.43 2.43 0 0 1-.68.71l3.07-1.77.15-.08a2.53 2.53 0 0 0 1.11-2.1 6.27 6.27 0 0 0-3.14-5.42 2.38 2.38 0 0 0-1.26-.35 2.56 2.56 0 0 0-1.17.28l-.27.15z" class="H"/><path d="M159.6 229.73a3.76 3.76 0 0 0 .4-.31 1.41 1.41 0 0 0 .4-.61 1.53 1.53 0 0 0 .14-.68 5.57 5.57 0 0 0-2.8-4.83 1.59 1.59 0 0 0-.62-.22 1 1 0 0 0-.29 0 1.33 1.33 0 0 0-.45.07 2 2 0 0 0-.46.19h-.1l-1.45.84a2.48 2.48 0 0 1 2.31-1.82h.14a2.3 2.3 0 0 1 .69.1 2.83 2.83 0 0 1 .57.23 6.32 6.32 0 0 1 3.14 5.44 2 2 0 0 1-.09.64 1.83 1.83 0 0 1-.34.75 2.43 2.43 0 0 1-.68.71l-.14.08a2.41 2.41 0 0 1-1.31.36 2.78 2.78 0 0 1-.57-.07z" class="E"/><path d="M102.44 253.4a2.36 2.36 0 0 1 1.18-.35h.14a2.3 2.3 0 0 1 .69.09 2.87 2.87 0 0 1 .57.24 6.31 6.31 0 0 1 3.15 5.44 2 2 0 0 1-.1.64 2.1 2.1 0 0 1-.33.75 2.91 2.91 0 0 1-.69.71l3.07-1.77.15-.08a2.55 2.55 0 0 0 1.12-2.1 6.28 6.28 0 0 0-3.15-5.43 2.46 2.46 0 0 0-1.26-.34 2.55 2.55 0 0 0-1.17.27l-.26.16z" class="H"/><path d="M106.54 260.4a4 4 0 0 0 .39-.31 1.9 1.9 0 0 0 .54-1.29 5.59 5.59 0 0 0-2.79-4.83 1.7 1.7 0 0 0-.63-.22 1 1 0 0 0-.29 0 1.15 1.15 0 0 0-.45.07 1.79 1.79 0 0 0-.45.19h-.1l-1.45.83a2.51 2.51 0 0 1 1.13-1.46 2.36 2.36 0 0 1 1.18-.35h.14a2.3 2.3 0 0 1 .69.09 2.87 2.87 0 0 1 .57.24 6.31 6.31 0 0 1 3.15 5.44 2 2 0 0 1-.1.64 2.1 2.1 0 0 1-.33.75 2.91 2.91 0 0 1-.69.71l-.14.08a2.4 2.4 0 0 1-1.3.36 2.79 2.79 0 0 1-.58-.07z" class="E"/><path d="M130.5 220.73a4 4 0 0 1 6 3.48 12 12 0 0 1-6 10.43 4 4 0 0 1-6-3.48 12.06 12.06 0 0 1 6-10.43z" fill="#eeedd9"/><path d="M132.5 221.55a2.64 2.64 0 0 1 2.63 2.63 10.68 10.68 0 0 1-5.33 9.22 2.56 2.56 0 0 1-1.31.36 2.64 2.64 0 0 1-2.63-2.63 10.66 10.66 0 0 1 5.33-9.22 2.56 2.56 0 0 1 1.31-.36m0-1.4a4 4 0 0 0-2 .54 12.06 12.06 0 0 0-6 10.43 4 4 0 0 0 6 3.48 12 12 0 0 0 6-10.43 4 4 0 0 0-4-4z" class="G"/><path d="M122.07 229.73a4 4 0 0 0 1.8 3.36l.4.22 2 1.18a3.26 3.26 0 0 1-.36-.29 4 4 0 0 1-1.44-3.08 12.06 12.06 0 0 1 1.61-6 13.08 13.08 0 0 1 1.31-1.84 11.84 11.84 0 0 1 3.1-2.56 3.91 3.91 0 0 1 1.54-.52 4 4 0 0 1 1.84.24 2.11 2.11 0 0 1 .47.19l-2.07-1.2-.36-.2a4 4 0 0 0-3.84.1 12.06 12.06 0 0 0-6 10.43z" class="E"/><path d="M130.5 226.85a.47.47 0 0 1 .7.4 1.4 1.4 0 0 1-.7 1.21.46.46 0 0 1-.69-.4 1.39 1.39 0 0 1 .69-1.21z"/><path d="M130.68 223.33l-.34.2v4.28l.34-.2v-4.28z"/></g><g transform="translate(456 205)"><g opacity="0"><use xlink:href="#Y" class="N"/><use xlink:href="#Z" class="O"/><animate attributeName="opacity" values="0;0;1;1" keyTimes="0;.35;.45;1" dur="20s" repeatCount="indefinite"/></g><g transform="translate(-110.77 86.33)"><path d="M20.05 33.1c-.8-2.64-4.78-4.64-9.58-4.64S1.7 30.45.9 33.1l6.33-21.5c0 1 1.46 1.88 3.24 1.88s3.25-.84 3.25-1.88z" class="S"/><ellipse cx="10.47" cy="34.07" rx="9.73" ry="5.62" class="G"/><ellipse cx="10.47" cy="11.6" rx="3.24" ry="1.87" class="H"/><use xlink:href="#U" class="B D"/><g class="K"><use xlink:href="#V" class="B"/><use xlink:href="#W" class="B"/></g><ellipse cx="10.47" cy="2.99" rx="3.24" ry="1.87" class="B D"/><animateTransform attributeName="transform" type="translate" values="-110.77, 86.33;-45.81 48.83;-45.81 48.83;-45.81 19.83;15.68 -15.67;15.68 10.33;16.3 16;16.3 16" keyTimes="0;0.25;0.48;0.55;0.62;0.69;.8;1" dur="20s" repeatCount="indefinite"/></g><g opacity="0"><use xlink:href="#a" class="O"/><use xlink:href="#b" class="N"/><g class="M"><use xlink:href="#c"/><use xlink:href="#d"/></g><animate attributeName="opacity" values="0;0;1;1" keyTimes="0;.35;.45;1" dur="20s" repeatCount="indefinite"/></g><g><use xlink:href="#Y" class="N"/><use xlink:href="#Z" class="O"/><g transform="translate(16.3 16)"><path d="M20.05 33.1c-.8-2.64-4.78-4.64-9.58-4.64S1.7 30.45.9 33.1l6.33-21.5c0 1 1.46 1.88 3.24 1.88s3.25-.84 3.25-1.88z" class="S"/><ellipse cx="10.47" cy="34.07" rx="9.73" ry="5.62" class="G"/><ellipse cx="10.47" cy="11.6" rx="3.24" ry="1.87" class="H"/><use xlink:href="#U" class="B D"/><g class="K"><use xlink:href="#V" class="B"/><use xlink:href="#W" class="B"/></g><ellipse cx="10.47" cy="2.99" rx="3.24" ry="1.87" class="B D"/></g><use xlink:href="#a" class="O"/><use xlink:href="#b" class="N"/><g class="M"><use xlink:href="#c"/><use xlink:href="#d"/></g><animateTransform attributeName="transform" type="translate" values="456, 205;524.42, 244.5;524.42, 244.5" keyTimes="0;.25;1" dur="20s" repeatCount="indefinite"/></g></g><g transform="translate(524.42 244.5)"><use xlink:href="#Y" class="N"/><use xlink:href="#Z" class="O"/><g transform="translate(16.3 16)"><path d="M20.05 33.1c-.8-2.64-4.78-4.64-9.58-4.64S1.7 30.45.9 33.1l6.33-21.5c0 1 1.46 1.88 3.24 1.88s3.25-.84 3.25-1.88z" class="S"/><ellipse cx="10.47" cy="34.07" rx="9.73" ry="5.62" class="G"/><ellipse cx="10.47" cy="11.6" rx="3.24" ry="1.87" class="H"/><use xlink:href="#U" class="B D"/><g class="K"><use xlink:href="#V" class="B"/><use xlink:href="#W" class="B"/></g><ellipse cx="10.47" cy="2.99" rx="3.24" ry="1.87" class="B D"/></g><use xlink:href="#a" class="O"/><use xlink:href="#b" class="N"/><g class="M"><use xlink:href="#c"/><path d="M44.94 21.63L26.8 11.16l24.26 14z"><animate attributeName="points" values="44.94,21.63 26.8,11.16 32.92,14.7 51.06,25.17;44.94,21.63 26.8,11.16 34.30,11.83 52.44,22.3;44.94,21.63 26.8,11.16 35.17,8.92 53.31,19.39;44.94,21.63 26.8,11.16 35.46,6.16 53.6,16.63;44.94,21.63 26.8,11.16 35.17,3.74 53.31,14.21;44.94,21.63 26.8,11.16 34.30,1.83 52.44,12.3;44.94,21.63 26.8,11.16 32.92,0.55 51.06,11.02;44.94,21.63 26.8,11.16 31.13,-0 49.27,10.47;44.94,21.63 26.8,11.16 29.04,0.21 47.18,10.68;44.94,21.63 26.8,11.16 26.80,1.16 44.94,11.63;44.94,21.63 26.8,11.16 24.56,2.79 42.7,13.26;44.94,21.63 26.8,11.16 22.47,5 40.61,15.47;44.94,21.63 26.8,11.16 20.68,7.62 38.82,18.09;44.94,21.63 26.8,11.16 19.30,10.49 37.44,20.96;44.94,21.63 26.8,11.16 18.43,13.4 36.57,23.87;44.94,21.63 26.8,11.16 18.14,16.16 36.28,26.63;44.94,21.63 26.8,11.16 18.14,16.16 36.28,26.63" keyTimes="0;0.014;0.026;0.04;0.054;0.066;0.08;0.094;0.106;0.12;0.134;0.146;0.16;0.174;0.186;0.2;1" dur="20s" repeatCount="indefinite"/><animate attributeName="fill" values="#ffc2a1;#ffc2a1;#f0b697;#ffc2a1;#ffc2a1" keyTimes="0;0.04;0.12;0.2;1" dur="2s" repeatCount="indefinite"/></path></g><use xlink:href="#e" opacity="0" class="d"/><g class="M"><path d="M26.8 11.16l-24.26 14L20.68 14.7z"><animate attributeName="points" values="26.8,11.16 8.66,21.63 2.54,25.17 20.68,14.7;26.8,11.16 8.66,21.63 2.54,25.17 20.68,14.7;26.8,11.16 8.66,21.63 1.18,22.34 19.32,11.87;26.8,11.16 8.66,21.63 0.31,19.47 18.45,9;26.8,11.16 8.66,21.63 0.00,16.73 18.14,6.26;26.8,11.16 8.66,21.63 0.26,14.33 18.4,3.86;26.8,11.16 8.66,21.63 1.09,12.41 19.23,1.94;26.8,11.16 8.66,21.63 2.41,11.1 20.55,0.63;26.8,11.16 8.66,21.63 4.15,10.49 22.29,0.02;26.8,11.16 8.66,21.63 6.19,10.62 24.33,0.15;26.8,11.16 8.66,21.63 8.39,11.48 26.53,1.01;26.8,11.16 8.66,21.63 10.61,13.01 28.75,2.54;26.8,11.16 8.66,21.63 12.70,15.12 30.84,4.65;26.8,11.16 8.66,21.63 14.52,17.65 32.66,7.18;26.8,11.16 8.66,21.63 15.96,20.45 34.1,9.98;26.8,11.16 8.66,21.63 16.91,23.33 35.05,12.86;26.8,11.16 8.66,21.63 17.31,26.1 35.45,15.63;26.8,11.16 8.66,21.63 17.31,26.1 35.45,15.63" keyTimes="0;0.05;0.064;0.076;0.09;0.104;0.116;0.13;0.144;0.156;0.17;0.184;0.196;0.21;0.224;0.236;0.25;1" dur="20s" repeatCount="indefinite"/><animate attributeName="fill" values="#ffc2a1;#ffc2a1;#e0aa8d;#ffc2a1;#ffc2a1" keyTimes="0;.09;.16;.29;1" dur="20s" repeatCount="indefinite"/></path><use xlink:href="#d"/></g><animateTransform attributeName="transform" type="translate" values="524.42, 244.5;592.83, 284;592.83, 284" keyTimes="0;.25;1" dur="20s" repeatCount="indefinite"/></g><g transform="translate(592.83 284)"><use xlink:href="#Y" class="N"/><use xlink:href="#Z" class="O"/><g transform="translate(16.3 16)"><path d="M20.05 33.1c-.8-2.64-4.78-4.64-9.58-4.64S1.7 30.45.9 33.1l6.33-21.5c0 1 1.46 1.88 3.24 1.88s3.25-.84 3.25-1.88z" class="b"/><ellipse cx="10.47" cy="34.07" rx="9.73" ry="5.62" class="G"/><ellipse cx="10.47" cy="11.6" rx="3.24" ry="1.87" class="H"/><use xlink:href="#U" class="B D"/><g class="K"><use xlink:href="#V" class="B"/><use xlink:href="#W" class="B"/></g><ellipse cx="10.47" cy="2.99" rx="3.24" ry="1.87" class="B D"/></g><use xlink:href="#a" class="O"/><use xlink:href="#b" class="N"/><use xlink:href="#e" class="d"/><use xlink:href="#f" fill="#ffc2a1"/><use xlink:href="#g" class="M"/><animateTransform attributeName="transform" type="translate" values="592.83, 284;605.82, 276.5;670.77, 206;670.77, 206" keyTimes="0;0.05;.25;1" dur="20s" repeatCount="indefinite"/></g><g transform="translate(670.77 206)"><use xlink:href="#Y" class="N"/><use xlink:href="#Z" class="O"/><g transform="translate(16.3 16)"><path d="M20.05 33.1c-.8-2.64-4.78-4.64-9.58-4.64S1.7 30.45.9 33.1l6.33-21.5c0 1 1.46 1.88 3.24 1.88s3.25-.84 3.25-1.88z" class="b"/><ellipse cx="10.47" cy="34.07" rx="9.73" ry="5.62" class="G"/><ellipse cx="10.47" cy="11.6" rx="3.24" ry="1.87" class="H"/><use xlink:href="#U" class="B D"/><g class="K"><use xlink:href="#V" class="B"/><use xlink:href="#W" class="B"/></g><ellipse cx="10.47" cy="2.99" rx="3.24" ry="1.87" class="B D"/></g><use xlink:href="#a" class="O"/><use xlink:href="#b" class="N"/><use xlink:href="#e" class="d"/><use xlink:href="#f" fill="#ffc2a1"/><use xlink:href="#g" class="M"/><animateTransform attributeName="transform" type="translate" values="670.77 206;723.77,144;762.74,121.5;762.74,121.5" keyTimes="0;0.175;.25;1" dur="20s" repeatCount="indefinite"/></g><g><path d="M493.53 124.33a5.15 5.15 0 0 1-5.23 0L426.7 91.9a21.91 21.91 0 0 1-10.94-19 7.24 7.24 0 0 1 3.66-6.31 6.48 6.48 0 0 1 1-.49 7.23 7.23 0 0 1 6.25.48h.05l61.54 39.6a15.66 15.66 0 0 1 7.85 13.59 5.19 5.19 0 0 1-1.93 4.06 4.66 4.66 0 0 1-.66.51z" class="E"/><path d="M494.95 123.5l-1.42.82a4.66 4.66 0 0 0 .69-.47 5.19 5.19 0 0 0 1.93-4.06 15.66 15.66 0 0 0-7.85-13.59l-61.6-39.6a7.23 7.23 0 0 0-6.25-.48 6.48 6.48 0 0 0-1 .49l2-1.14a7.22 7.22 0 0 1 7.29 0l61 39.9a15.64 15.64 0 0 1 7.85 13.59 5.18 5.18 0 0 1-2.65 4.52z" class="H"/><path d="M431.22 70.53a15.81 15.81 0 0 1 2.11 7.86v97.7l-15.72 9.08V87.13a15.64 15.64 0 0 0-2.09-7.52 15.83 15.83 0 0 0-5.76-5.76 5.19 5.19 0 0 0-5.24 0l16-9.24a5.17 5.17 0 0 1 4.95.16 15.72 15.72 0 0 1 5.75 5.76z" class="G"/><path d="M415.54 79.6a15.64 15.64 0 0 1 2.09 7.52v98.03l-7.87-4.53-7.87-4.55V78.4a5.24 5.24 0 0 1 7.86-4.54 15.83 15.83 0 0 1 5.79 5.76z" class="E"/><path d="M472.87 200.52l1.75-1v-6.05l-1.75 1v6.05zm3.4 1.98l1.75-1 .78-8.02-1.74 1-.8 8.02zm11.87-10.8l1.75-1v-6.05l-1.75 1v6.05z" class="V"/><path d="M491.56 193.68l.78-8.02-6.3-3.64.8 8.93 1.3.76v-6.05l2.1 1.2v6.05l1.3.76z" class="C"/><g class="V"><path d="M491.56 193.68l1.75-1 .78-8.02-1.75 1-.78 8.02z"/><path d="M477.07 194.47l17.02-9.82v-1.84l-17 9.83-.02 1.83z"/></g><path fill="#1f2b54" d="M470.83 189.03l-.05 1.8.78 8.93 1.3.76v-6.05l2.1 1.2v6.05l1.3.76.8-8.02.02-1.83-6.26-3.6z"/><path d="M477.1 192.64l-6.26-3.6 17-9.83 6.25 3.6-17 9.83z" class="C"/><path d="M491.43 175a2.61 2.61 0 0 1-2.62 0 7.91 7.91 0 0 1-3.93-6.81v-12.7a2.6 2.6 0 0 1 1.34-2.26 2.24 2.24 0 0 1 .55-.24 2.58 2.58 0 0 1 2.07.23 8 8 0 0 1 2.88 2.88 7.94 7.94 0 0 1 1 3.93v12.7a2.57 2.57 0 0 1-.83 1.91 2.12 2.12 0 0 1-.46.37z" class="E"/><path d="M492.45 174.42l-1 .6a2.12 2.12 0 0 0 .48-.35 2.57 2.57 0 0 0 .83-1.91v-12.72a7.94 7.94 0 0 0-1-3.93 8 8 0 0 0-2.88-2.88 2.58 2.58 0 0 0-2.07-.23 2.24 2.24 0 0 0-.55.24l1-.6a2.61 2.61 0 0 1 2.62 0 8 8 0 0 1 2.88 2.88 7.83 7.83 0 0 1 1 3.93v12.72a2.59 2.59 0 0 1-1.31 2.25z" class="G"/><g class="V"><path d="M481.05 170.12v15.67c0 .48.68.87 1.5.87s1.5-.4 1.5-.87v-15.67z"/><path d="M474.5 183.88l-.02-5.46 17.3-9.98v5.45l-17.3 10z"/></g><path d="M487.05 165.7l-17.27 10 4.7 2.7 17.3-9.98-4.74-2.73z" class="C"/><path d="M477.36 172.07a5.21 5.21 0 0 1-5.25 0 15.73 15.73 0 0 1-7.89-13.62v-38.13a5.24 5.24 0 0 1 7.86-4.54 15.71 15.71 0 0 1 7.87 13.62v38.12a5.24 5.24 0 0 1-2.59 4.55z" class="E"/><path d="M493.08 163l-15.72 9.08a5.24 5.24 0 0 0 2.62-4.55V129.4a15.71 15.71 0 0 0-7.87-13.62 5.22 5.22 0 0 0-5.24 0l15.73-9.05a5.22 5.22 0 0 1 5.24 0 15.76 15.76 0 0 1 7.86 13.62v38.13a5.22 5.22 0 0 1-2.62 4.51z" class="G"/><path d="M473.8 185.06a2.58 2.58 0 0 1-2.62 0 7.82 7.82 0 0 1-2.87-2.87 8 8 0 0 1-1.06-3.93v-12.72a2.61 2.61 0 0 1 1.31-2.27 2.21 2.21 0 0 1 .55-.23 2.58 2.58 0 0 1 2.07.23 8 8 0 0 1 2.88 2.88 7.94 7.94 0 0 1 1 3.93v12.7a2.54 2.54 0 0 1-.83 1.91 1.89 1.89 0 0 1-.43.36z" class="E"/><path d="M474.82 184.47l-1 .6a1.89 1.89 0 0 0 .48-.36 2.54 2.54 0 0 0 .83-1.91v-12.7a7.94 7.94 0 0 0-1-3.93 8 8 0 0 0-2.88-2.88 2.58 2.58 0 0 0-2.07-.23 2.21 2.21 0 0 0-.55.23l1-.6a2.61 2.61 0 0 1 2.62 0 8 8 0 0 1 2.88 2.88 7.83 7.83 0 0 1 1 3.93v12.7a2.59 2.59 0 0 1-1.31 2.27z" class="G"/><path d="M471.22 178.38a1.21 1.21 0 0 0-1.82 1 3.63 3.63 0 0 0 1.82 3.15 1.21 1.21 0 0 0 1.81-1.05 3.61 3.61 0 0 0-1.81-3.14zm0-12.7a1.21 1.21 0 0 0-1.82 1 3.63 3.63 0 0 0 1.82 3.15 1.21 1.21 0 0 0 1.81-1 3.62 3.62 0 0 0-1.81-3.14z" class="C"/><path d="M477.46 133.28l-1.42.82a5.33 5.33 0 0 0 .69-.48 5.17 5.17 0 0 0 1.93-4 15.69 15.69 0 0 0-7.85-13.6l-61.6-39.58a7.23 7.23 0 0 0-6.25-.49 7.66 7.66 0 0 0-1 .5l2-1.15a7.25 7.25 0 0 1 7.28 0l61 39.9a15.66 15.66 0 0 1 7.82 13.52 5.19 5.19 0 0 1-2.61 4.55z" class="H"/><path d="M476.04 134.1a5.17 5.17 0 0 1-5.23 0l-61.6-32.43a21.9 21.9 0 0 1-10.93-19 7.24 7.24 0 0 1 3.65-6.3 7.66 7.66 0 0 1 1-.5 7.23 7.23 0 0 1 6.25.49h.05l61.54 39.58a15.69 15.69 0 0 1 7.85 13.6 5.17 5.17 0 0 1-1.93 4 5.33 5.33 0 0 1-.65.56z" class="E"/><path d="M408.47 84.6a2.63 2.63 0 0 0-3.94 2.27 7.86 7.86 0 0 0 3.94 6.81 2.62 2.62 0 0 0 3.93-2.27 7.87 7.87 0 0 0-3.93-6.81zm62 36.5a2.62 2.62 0 0 0-3.93 2.27 7.84 7.84 0 0 0 3.93 6.81 2.62 2.62 0 0 0 3.93-2.27 7.87 7.87 0 0 0-3.93-6.81z" class="C"/><animateTransform attributeName="transform" type="translate" values="0 0;0 0;-61.49 35.5;-61.49 64.5;-61.49 64.5;-61.49 35.5;0 0;0 26;0 26;0 0;0 0" keyTimes="0;0.3;0.37;0.44;0.48;0.55;0.62;0.69;0.73;0.8;1" dur="20s" repeatCount="indefinite"/></g><path d="M436.68 175.97l-19.03 10.98-19.02-10.98 3.3-1.9v2.02l15.72 9.08 15.72-9.08v-2.02l3.3 1.9z" class="H"><animateTransform attributeName="transform" type="translate" values="0 0;0 0;-61.49 35.5;-61.49 35.5;0 0;0 0" keyTimes="0;0.3;0.37;0.55;0.62;1" dur="20s" repeatCount="indefinite"/></path><path d="M0,0V33.82H.65C3,40.22,11.4,45.32,22.25,47V76.67H60.48V0Z" transform="translate(748.09 115.19)" fill="url(#S)" class="Y"/><g transform="translate(-55.78 -434.27)"><path d="M604.53 920.6l-3.1-2.6v72.9a3.17 3.17 0 0 0 6.23 0V918z" fill="url(#L)"/><path d="M660.63 888.16l-3.12-2.57v72.9a3.17 3.17 0 0 0 6.23 0v-72.9z" fill="url(#M)"/><path d="M457.18 835.52l-3.12-2.52v72.9a3.17 3.17 0 0 0 6.23 0V833z" fill="url(#N)"/></g><path d="M467.9 498.8s.15-.3.83-.33.17 1.13.17 1.13z" class="C"/><path d="M473.94 497.75l-5.37 3.4-.12-12.42 5.4-.42.1 9.43z" class="W"/><path d="M467.9 498.8v2.6c0 3 1.77 2.7 3.2 2.1 4.82-2 13.5-7.18 11.8-8.83-2.4-2.35-6 1.46-8.94 1.23-.72 1.63-1.94 3.98-6.05 2.9zm-15.55-34.58c8.28-.94 11.77-7.2 19.47-6.23 2.3.77-8 32.27-3.9 32.88 0 0 5.94.07 6.9-2.32-.3-1.6 16.15-48 5.75-47.4-10.5 1.27-33.3 11.84-35.86 9.72s-10.63 15.9 7.63 13.34z" class="C"/><path d="M436.8 506.64h1.66v4.62h-1.66zm38.46-1.42h1.66v3.4h-1.66zm15.8 19.58h1.66v3.72h-1.66zM465 539.83h1.66v4.42H465zm-35.26-10.16h1.66v5h-1.66z" class="F"/><path d="M464.44 551.62a1.73 1.73 0 0 0 1.77.17 1.75 1.75 0 0 0 .73-1.61 5.55 5.55 0 0 0-2.5-4.32 1.52 1.52 0 0 0-2.49 1.44 5.52 5.52 0 0 0 2.49 4.32z" class="P"/><path d="M466.22 551.8l2.78-1.6a1.75 1.75 0 0 0 .73-1.61 5.54 5.54 0 0 0-2.49-4.33 1.78 1.78 0 0 0-1.77-.17l-2.8 1.65a1.74 1.74 0 0 1 1.76.17 5.55 5.55 0 0 1 2.5 4.32 1.75 1.75 0 0 1-.72 1.57z" class="F"/><path d="M492.9 534.23a1.78 1.78 0 0 1-1.77.17 1.74 1.74 0 0 1-.72-1.62 5.53 5.53 0 0 1 2.5-4.31 1.52 1.52 0 0 1 2.5 1.44 5.57 5.57 0 0 1-2.51 4.32z" class="P"/><path d="M491.12 534.4l-2.78-1.62a1.75 1.75 0 0 1-.73-1.61 5.57 5.57 0 0 1 2.51-4.32 1.73 1.73 0 0 1 1.76-.16l2.8 1.6a1.76 1.76 0 0 0-1.77.17 5.53 5.53 0 0 0-2.5 4.31 1.74 1.74 0 0 0 .72 1.62z" class="F"/><path d="M476.66 514.27a1.53 1.53 0 0 1-2.5-1.45 5.52 5.52 0 0 1 2.5-4.32 1.52 1.52 0 0 1 2.49 1.44 5.56 5.56 0 0 1-2.49 4.33z" class="P"/><path d="M474.9 514.44l-2.78-1.6a1.73 1.73 0 0 1-.73-1.61 5.53 5.53 0 0 1 2.49-4.33 1.76 1.76 0 0 1 1.76-.17l2.8 1.6a1.74 1.74 0 0 0-1.76.17 5.52 5.52 0 0 0-2.5 4.32 1.77 1.77 0 0 0 .73 1.62z" class="F"/><path d="M437.62 517.44a1.73 1.73 0 0 1-1.77.17 1.75 1.75 0 0 1-.73-1.61 5.55 5.55 0 0 1 2.5-4.32 1.74 1.74 0 0 1 1.76-.17 1.76 1.76 0 0 1 .74 1.61 5.56 5.56 0 0 1-2.5 4.32z" class="P"/><path d="M435.85 517.6l-2.78-1.6a1.77 1.77 0 0 1-.73-1.62 5.54 5.54 0 0 1 2.49-4.32 1.76 1.76 0 0 1 1.77-.17l2.78 1.6a1.74 1.74 0 0 0-1.76.17 5.55 5.55 0 0 0-2.5 4.32 1.75 1.75 0 0 0 .73 1.61z" class="F"/><path d="M432.42 540.62a1.78 1.78 0 0 1-1.77.17 1.76 1.76 0 0 1-.73-1.62 5.56 5.56 0 0 1 2.5-4.32 1.53 1.53 0 0 1 2.5 1.44 5.59 5.59 0 0 1-2.5 4.33z" class="P"/><g class="F"><path d="M430.65 540.8l-2.78-1.6a1.75 1.75 0 0 1-.73-1.61 5.52 5.52 0 0 1 2.49-4.32 1.76 1.76 0 0 1 1.77-.18l2.82 1.66a1.76 1.76 0 0 0-1.76.17 5.56 5.56 0 0 0-2.5 4.32 1.76 1.76 0 0 0 .69 1.57zm63.95-17.92l-29.7-10.25 11.85-6.9a1.91 1.91 0 1 0-1.92-3.3l-14.8 8.6-23.36-5.2a1.911 1.911 0 1 0-.83 3.73l19.3 4.3-26.1 15a1.91 1.91 0 0 0 .95 3.56 1.93 1.93 0 0 0 .95-.25l28-16.13 4.82 25.33a1.92 1.92 0 0 0 1.88 1.55 1.59 1.59 0 0 0 .36 0 1.9 1.9 0 0 0 1.51-2.23l-4.7-24.72 30.53 10.54a2 2 0 0 0 .62.1 1.91 1.91 0 0 0 .63-3.72z"/><path d="M457 469.5h6.58v44.24H457z"/></g><path d="M487.9 469.6a4.68 4.68 0 0 1-1 2.8 8.62 8.62 0 0 1-2.69 2.34l-8.64 5c-9.14 5.27-23.95 5.27-33.1 0l-5.66-3.27c-3.32-1.92-5.44-4.27-6.34-6.75a8 8 0 0 1-.51-2.8 8.23 8.23 0 0 1 .26-2c.72-2.75 2.92-5.4 6.6-7.53l8.65-5c4.88-2.82 12.78-2.82 17.66 0l21.08 12.1a7.72 7.72 0 0 1 3.17 3.08 4.48 4.48 0 0 1 .52 2.02z" class="P"/><g class="F"><path d="M487.9 469.6v5.6c0 1.85-1.22 3.7-3.66 5.1l-8.64 5c-9.14 5.28-23.95 5.28-33.1 0l-5.66-3.26c-4.57-2.64-6.85-6.1-6.85-9.55v-5.6a8 8 0 0 0 .51 2.8c.9 2.48 3 4.83 6.34 6.75l5.66 3.3c9.14 5.27 23.95 5.27 33.1 0l8.64-5a8.62 8.62 0 0 0 2.68-2.3 4.68 4.68 0 0 0 .98-2.84z"/><path d="M445.74 486.82l-.92.53a1.43 1.43 0 0 1-2.15-1.25v-5l1.08.62v3.73a.69.69 0 0 0 .3.59h.05l.16.07c.48.3.96.5 1.48.7z"/><path d="M443.4 487.36l-5.9-3.4a1.41 1.41 0 0 1-.71-1.24v-5l1.08.62v3.73a.72.72 0 0 0 1.08.63l1.2-.7 2.55 1.47v2.63a1.45 1.45 0 0 0 .71 1.27z"/></g><path d="M489.8 513.3s.15-.3.82-.33.18 1.13.18 1.13z" class="C"/><path d="M495.86 512.25l-5.37 3.4-.12-12.42 5.4-.42.1 9.43z" class="W"/><path d="M489.8 513.3v2.6c0 3 1.76 2.7 3.2 2.1 4.82-2 13.48-7.18 11.8-8.84-2.4-2.34-6 1.46-9 1.24-.68 1.63-1.9 3.98-6 2.9zm-52.18-60.37s-2.3 25.8 19.37 25.8c17 0 22.1-11.64 29.6-9.6s-.37 36.88 3.58 38.05c0 0 5 .28 6.3-2s11.6-52.5.2-55c-10.3-2.28-36.77 11.36-39 8.9s-2.67-12-2.67-12l-19.08.66z" class="C"/><path d="M457.5 349.8L617.2 442l-68.44 40.48-159.7-93.17 68.45-39.5z" class="J"/><path d="M548.76 481.52L617.2 442v4.92l-68.44 39.52v-4.92z" class="I"/><path d="M389.05 389.3v4.92l159.7 92.2v-4.92l-159.7-92.2z" class="T"/><path fill="#ccc" d="M534.87 384.43l2.55-1.47v32.4l-29.35 16.94v-2.94l26.8-15.47v-29.47z"/><path fill="#e5e5e5" d="M491.48 359.38l2.56-1.47 43.38 25.05-2.55 1.47-43.4-25.05z"/><path d="M508.07 429.37l-43.38-25.05 26.8-15.47 43.4 25.05-26.8 15.47z" class="T"/><path fill="#b2b2b2" d="M464.7 407.27v-2.95l43.38 25.05v2.94l-43.38-25.04z"/><path d="M492.96 388l40.43 23.35v-26.07l-40.43-23.34V388z" class="E"/><path d="M492.95 361.94l40.44 23.34v26.06L492.95 388v-26.06m-1.47-2.56v29.47l43.38 25v-29.42l-43.38-25.05z" class="C"/><path d="M494.63 419.32l-12.5-7.2 7.72-4.45 12.5 7.2-7.7 4.45zm22.8 2.2l-39.05-22.54 13.93-8.1 39.05 22.54-13.93 8.1z" fill="#b7b7b7"/><path d="M445.14 389.93a19.31 19.31 0 0 1-.42 2.62 22.25 22.25 0 0 1-2.31 5.54c-.15.26-2.8 4.3-2.86 4.24 5.33 4.83 14.67 3.87 14.67 3.87l-1-8c3.3 2.06 3.47 2.66 5.33 1.5 4.36-2.75 7.88-15.9 4.2-20.67-3.07-4-8.95-5-11.1-3.75a11 11 0 0 0-3.42 3.96 17.08 17.08 0 0 0-2.45 6.15l-.53 3.8z" class="W"/><path d="M453.6 391.1a5 5 0 0 1-.32-1.73c0-1.62.62-2.94 1.44-2.95.5 0 1.16 1.13 1.43 1.9a1.3 1.3 0 0 0 .55-.12 42.93 42.93 0 0 0 .64-6.25 34.86 34.86 0 0 1 6.07-1.83c0 0-6.86-10.36-16.32-5.3-7 3.74-7.36 14-2.6 18.63a5.11 5.11 0 0 0 3 .31z" class="V"/><path d="M488.52 406.4c0-1.6-5.4-2.62-7.6-2.12s-3.64 3.37-5 4.22c-5.56 2.67-15.13 2-20.53 2.18s-13.46-7.44-16.17-7.63a4.49 4.49 0 0 0-1 0 3.4 3.4 0 0 0-2.6 4.77c3.44 7.94 13.7 13.08 20.47 12.74 7.57-.37 16.3-6.35 21.73-8.5 1.88-.74 7.52-1.77 7.7-2.52s-2.34-.2-2.53-1.22 5.52-.8 5.52-1.92z" class="W"/><path d="M470.58 455.9c-11 7-16.16 7.66-36.1.8-2.28-20.17-3.68-54.3 5.46-55.84.1 1.43 10.28 4.2 12.7 4.37a25.83 25.83 0 0 1 5.86 5.42 52.78 52.78 0 0 1 5.58 8c4.46 7.75 5.9 21.68 6.5 37.24z" class="E"/><path d="M508 415.57c-2.7-3.34-6.3 1.16-8.25 1.28.54-.9.9-1.75.44-2-.93-.57-4 3.86-4.6 4.7a10.35 10.35 0 0 0-1.85 2.14s-12.5 10.78-15.5 10.53c-1.33-.1-2.58-1.7-4.27-4.7-1.53-2.7-3.4-6.5-6-11.38a20 20 0 0 0-15.31-10.88c.35 10.17 6.1 19.4 11.7 26.74 5.1 6.72 8.94 11 12.4 11 6.37 0 20.14-17.06 20.14-17.06 3-2.3 6.2-3.36 7.4-4.2 2.72-2.14 5.02-4.58 3.73-6.18z" class="W"/><path d="M473.97 427.52c-4.45 1.2-11 6-11 6-5.6-7.36-10-18.15-10.36-28.32a20 20 0 0 1 15.31 10.88l6 11.38z" class="E"/><path d="M436.77 446.9v35.58l5.9 3.4V445.9l-5.9 1z" class="F"/><path d="M443.75 484.2l-1.08.62v-34.5l1.08-.63v34.5z" class="P"/><path fill="#4c4c4c" d="M442.67 450.32l1.08-.6-5.9-3.4-1.08.6 5.9 3.4z"/><path d="M454.42 465.88l5.2-3c3.87-2.24 5.67-7.92 4.12-15.46l-4.08-23.1c-1.68-8.14-7.3-16.38-13.75-20.1l-1.9-1.1c-3.88-2.24-7.47-2.5-10.07-1l-5.22 3a7.19 7.19 0 0 1 3-.92 12.33 12.33 0 0 1 7.13 1.91l1.9 1.1c6.43 3.7 12.07 12 13.75 20.1l4.08 23.1c1.2 5.82.4 10.54-1.82 13.4a7.85 7.85 0 0 1-2.35 2.06z" class="P"/><path d="M434.22 459.36l.35.24 2.22 1.55a38.83 38.83 0 0 0 5.9 3.4l2.23 1 .34.16c3.62 1.58 6.77 1.5 9.14.14a7.85 7.85 0 0 0 2.3-2c2.2-2.87 3-7.6 1.82-13.4l-4.08-23.1c-1.68-8.14-7.32-16.38-13.75-20.1l-1.9-1.1a12.33 12.33 0 0 0-7.13-1.91 7.19 7.19 0 0 0-3 .92 8.19 8.19 0 0 0-3.67 5.21l-4 18.35c-2.5 9.27 3.7 23.8 13.23 30.63z" class="F"/><path d="M444.47 393.45s-6 2.8-5.82 5.56 2.7 11.85 0 14.9c0 0 8.5-7.86 7.87-10.85s-3.6-6.6-2.05-9.6z" class="V"/><path d="M556.63 435.56c20.06-11.48 44.26-17.75 62.35-13.3s56.83.68 74.84-4.52c16.88-4.88 53.83-22.54 58.08-39.6 2.65-10.66-5.38-17-12.08-17-9.1 0-13.43 15.34-6.47 19.34 9.7 5.58 28.75-7.48 38.78-22.38 14.13-21 20.6-55.06 21.6-71.3" fill="none" stroke="#08bfba" stroke-width="3" class="U"/><g class="F"><path d="M563.66 441.6a5.38 5.38 0 0 1-.44 2.14c-1.65 3.88-7.72 6.75-14.94 6.75s-13.3-2.87-14.94-6.75a5.39 5.39 0 0 1-.45-2.13c0-4.9 6.9-8.9 15.4-8.9s15.38 4.02 15.38 8.88z"/><path d="M563.66 441.6v4.26c0 4.9-6.88 8.9-15.38 8.9s-15.4-4-15.4-8.9v-4.26a5.39 5.39 0 0 0 .45 2.13c1.65 3.88 7.72 6.75 14.94 6.75s13.3-2.87 14.94-6.74a5.38 5.38 0 0 0 .44-2.14z"/></g><path d="M559.97 438.03a4.05 4.05 0 0 1-.34 1.62c0 .06 0 .1-.07.17-1.35 2.86-5.9 5-11.28 5s-9.93-2.1-11.28-5a1.3 1.3 0 0 1-.08-.17 4 4 0 0 1-.33-1.62c0-3.72 5.23-6.75 11.7-6.75s11.7 3.03 11.7 6.75z" class="H"/><path d="M615.75 872.3v3.56a4.13 4.13 0 0 1-.34 1.62c-1.25 2.95-5.86 5.13-11.35 5.13s-10.1-2.18-11.36-5.13a4.12 4.12 0 0 1-.33-1.62v-3.56a4 4 0 0 0 .33 1.62 1.3 1.3 0 0 0 .08.17c1.35 2.86 5.9 5 11.28 5s9.93-2.1 11.28-5c0-.06 0-.1.07-.17a4.05 4.05 0 0 0 .34-1.62z" transform="translate(-55.78 -434.27)" fill="url(#O)"/><path d="M541.15 438.6l2.22-1.28 2-.22c2.52-2 7.35-3 9.1-3 0 1-1.72 3.8-5.15 5.26l-.4 1.14-2.22 1.28-.56-1.6c-1.1 0-1.1 0-1.66-.32s-.55-.32-.55-1l-2.77-.32m2.22 1.28l1.1.64-2.1 1.27h-1.1v-.64l2.1-1.2m-1.1-.64l1 .08-1.93 1.1v-.64l1-.55m3.2 1.36l.13.56-.94.55h-1.1l1.92-1.1m3.7-4.1c-.65 0-1.18.3-1.18.68s.53.68 1.18.68 1.17-.3 1.17-.68-.6-.68-1.24-.68z" fill="#e5e5e5"/><path fill="#526ccc" d="M829.24 250.06v145.76l153.7 88.74V338.8l-153.7-88.73z"/><path d="M832.78 254.94v139.08l146.65 84.67V339.6l-146.65-84.67z" class="F"/><path d="M959.42 452.55L843.8 385.8V278.2h1v107l115.12 66.47-.5.86z" class="B K"/><path d="M929.15 352.22l-1.02 1.72 12.2 7.2-35 20-14.18-24.68-28.68 16.56 1 1.73 26.95-15.56 14.17 24.68 36.73-21v14.43h2V360.6l-14.17-8.37z" class="E"/><path d="M811.8 370.16s-1.13-7.88-5.13-9.75-13.63 0-15.5 6.2 3.4 16.8 7.28 17.72 13.35-14.17 13.35-14.17z" class="C"/><path d="M795.77 379.3a4.79 4.79 0 0 0 1.44 1l.06.16c0 .1.08.2.1.32l.42 1c1.44 3.9.83 9.45.34 12.45-.2 1.3-.4 2.13-.4 2.13 5 1.82 9.43-1.15 11.43-2.84.26-.22.47-.42.64-.58s.47-.47.47-.47l-1.92-3.36-1.1-2.87-.16-.45 1.83.63c1.8.62 2.35.78 3.3-.06a5 5 0 0 0 .41-.4c4.25-6-1.6-19.58-4.4-21.18-3.65-2.1-7.07-1.35-9 .12a5.3 5.3 0 0 0-.89.88c-1.43 1.87-2.26 6.32-1.94 10.47-.73-.34-1.4-.36-1.76 0-.54.54-.05 1.93 1.13 3.05z" class="X"/><path d="M805.75 363.73s-3.2-.55-9.35 9.16c-2.3 1.94-2-9.4-2-9.4s8.82-2.77 11.35.23z" class="C"/><path d="M865.3 408s.14-5.88 3.78-8.5a5.9 5.9 0 0 0 1.2-1.14c1.22-1.6 4.2-5.16 5.4-4.2s-3.64 4.82-3.72 5.2 3.9 2.22 4.1 3.44-6 7.5-6 7.5-3.17-.33-4.78-2.3z" class="X"/><path d="M867.3 827.06s1.75-2.13 6-.72 20.2 23.83 26.67 25.57 10.7-4.34 21.13-10.92c0 0 1.8 3.45 4.8 3.58s-12 20.3-25.43 20.3c-15.7 0-36.9-33-33.16-37.8z" transform="translate(-55.78 -434.27)" fill="url(#P)"/><path d="M815.18 561.48l-6.25-.26.58-8.43 6.25.27-.58 8.42z" class="X"/><path d="M808.22 559.9l-.7 6.43s17.67 1.52 17.9-.14c-1.5-3-7.4-5.5-10.3-6.06-2.96.43-2.9 1.32-6.9-.23z" class="C"/><path d="M803 568.54l-6.25-.27.58-8.42 6.25.26-.58 8.43z" class="X"/><path d="M796.04 566.94l-.7 6.44s17.67 1.52 17.9-.15c-1.5-3-7.4-5.5-10.3-6.06-2.97.44-2.95 1.33-6.9-.23zM824 432.06c-.06.6-30.34 14.1-30.34 14.1l3.22 117.76a15.91 15.91 0 0 0 7.09-.86c1.58-2.77 4.27-62.47 5.74-97.87 5.35 48.24-1.06 92.42-1.06 92.42a22.59 22.59 0 0 0 7.12-.72C829.37 505 824 432.07 824 432.07z" class="C"/><path d="M849.43 880.42a31.38 31.38 0 0 0 8.59-1 43.48 43.48 0 0 0 4.29-1.31l4.1-1.7 2.4-1.2.55-.3c6.1-3.33 10.35-7.18 10.4-8.58 2.37-21-5.48-33.55-7.5-40.27a18.2 18.2 0 0 0-4.41-1.06 8.44 8.44 0 0 0-2.56.38 14.56 14.56 0 0 1-4.25 2.53l-.23.1c-2.27.94-4.85 1.67-7.32 2.56-2.4 1.26-4.35 2.53-4.67 3.44l-.05.2c-.38 2.25.5 15.36 1 27.14l.23 7.26c.1 5.7-.02 10.25-.6 11.8z" transform="translate(-55.78 -434.27)" fill="url(#Q)"/><path d="M805.04 393.73c0 .06 0 .2.1.4l1.2 4.38.25 1c1.16 4.52 2.77 11.25 4.1 18.56a182.75 182.75 0 0 1 1.28 8.05c.5 3.66.85 7.3 1 10.78v.2c.06 1.34.07 2.63.06 3.9.18-.1.37-.2.55-.3v-3.98c-.16-3.72-.57-7.67-1.13-11.6-.32-2.27-.68-4.54-1.08-6.76-1.33-7.48-3-14.4-4.18-19l-.26-1-1.17-4.33a5.22 5.22 0 0 1-.12-.41l-.3.08z" class="I"/><path d="M807.88 399.1h.07a.47.47 0 0 0 .32-.55l-.95-4.5a.46.46 0 0 0-.59-.35l-4.33 1.3a.47.47 0 0 0-.3.62l1.7 4.3a.46.46 0 0 0 .56.27h.14c.36 5.3 2.67 34.55 9.53 37.67 4.53-10.62-4.13-33.66-6.15-38.74z" class="E"/><path d="M818.48 406.55c-3.68-2.16-5.45 3.22-7.23 4.07.15-.93.15-1.74-.34-1.84-1-.2-2.18 4.12-2.57 5.66a10.51 10.51 0 0 0-1.07 2.84c1.33 2.15 3.45 2.46 4.45 2.9 2-3.2 4.63-5.33 5.45-6.53 1.8-2.92 3.05-6.05 1.3-7.1z" class="X"/><path d="M852.74 834.78s0-2.84-2.74-2-19.44 38.17-7.73 52.62 27.8-21.93 26-32c-.85-.73-1.73 0-4.8-3.08-5.58 4.2-11.07 20.53-12.7 19.66-3.26-1.8 1.97-35.2 1.97-35.2z" transform="translate(-55.78 -434.27)" fill="url(#R)"/><g class="I"><path d="M809.43 390.93c-.32.1-4.13 2.7-4.13 2.7l4.23 1.83.37-4.46z"/><path d="M797.73 396.3l5 1.77 2.6-4.43a56.62 56.62 0 0 1-7.33 1.49c-.25.2-.28 1.17-.28 1.17z"/></g></svg>